<?xml version="1.0" standalone="no"?>
<!DOCTYPE svg PUBLIC "-//W3C//DTD SVG 20010904//EN"
 "http://www.w3.org/TR/2001/REC-SVG-20010904/DTD/svg10.dtd">
<svg version="1.0" xmlns="http://www.w3.org/2000/svg"
 width="300.000000pt" height="300.000000pt" viewBox="0 0 300.000000 300.000000"
 preserveAspectRatio="xMidYMid meet">
<metadata>
Created by tim.Adurah
</metadata>
<g transform="translate(0.000000,300.000000) scale(0.100000,-0.100000)"
fill="rgba(30, 144, 255, 1)" stroke="none">
<path d="M1408 2719 c44 -8 62 -15 62 -26 0 -13 3 -13 15 -3 12 10 19 10 27 2
17 -17 33 -15 19 2 -10 12 -7 15 16 19 16 3 7 5 -22 5 -27 0 -79 3 -115 6
l-65 5 63 -10z"/>
<path d="M1605 2724 c11 -3 27 -8 35 -11 8 -3 24 -5 35 -4 19 3 18 1 -5 -26
-14 -15 -18 -22 -10 -15 17 14 54 16 45 2 -3 -5 -1 -10 4 -10 15 0 14 13 -1
28 -10 10 -10 15 2 22 12 8 11 10 -6 10 -12 0 -43 2 -70 5 -27 2 -40 2 -29 -1z"/>
<path d="M1731 2701 c-19 -12 22 -25 56 -17 16 5 22 3 18 -4 -3 -6 3 -10 17
-10 13 0 29 -4 37 -9 11 -7 10 -11 -5 -21 -19 -11 -19 -11 0 -6 10 4 25 1 32
-5 12 -10 13 -9 8 5 -8 20 -7 20 47 1 24 -9 49 -13 57 -10 7 2 10 0 7 -5 -3
-6 1 -13 9 -16 8 -3 18 -14 21 -24 4 -11 14 -16 30 -14 14 1 44 -7 67 -19 l43
-21 -30 -8 c-27 -7 -27 -7 7 -3 21 2 44 -2 55 -10 10 -9 13 -14 6 -15 -7 0
-13 -8 -12 -17 0 -11 3 -13 6 -5 2 6 9 10 14 6 5 -3 19 -7 31 -9 25 -5 49 -25
29 -25 -7 0 -9 -5 -6 -10 5 -8 11 -8 19 -1 15 13 62 -31 52 -48 -4 -6 8 -13
27 -16 18 -4 38 -15 45 -25 10 -16 9 -18 -3 -14 -17 7 -19 -4 -5 -26 6 -10 10
-11 10 -2 0 20 24 13 43 -13 17 -24 17 -25 0 -32 -14 -6 -10 -9 17 -13 29 -4
35 -9 35 -30 0 -16 8 -29 25 -37 36 -18 52 -43 39 -60 -9 -10 -7 -13 10 -13
11 0 21 -6 21 -14 0 -8 6 -17 13 -19 9 -4 8 -8 -3 -16 -13 -10 -13 -11 0 -12
8 -1 18 -1 23 0 4 0 7 -7 7 -17 0 -10 5 -23 12 -30 9 -9 8 -16 -6 -30 -16 -19
-16 -19 10 -14 24 4 26 2 22 -16 -3 -12 -1 -23 4 -24 7 -3 7 -11 -1 -26 -10
-19 -9 -21 6 -15 12 5 15 2 10 -10 -7 -19 9 -24 16 -4 3 6 5 1 5 -13 0 -14 3
-35 6 -48 4 -20 2 -22 -17 -18 -19 5 -18 4 3 -7 24 -12 34 -47 17 -63 -4 -4
-7 -12 -7 -18 0 -6 5 -4 10 4 9 13 10 13 11 0 1 -8 1 -18 0 -22 0 -5 3 -8 8
-8 5 0 9 -16 8 -35 -2 -27 -6 -35 -22 -36 -17 -1 -17 -2 -2 -6 9 -2 14 -9 10
-15 -4 -8 0 -9 11 -5 14 6 17 3 12 -9 -3 -8 -6 -19 -6 -24 0 -5 -7 -16 -16
-24 -13 -14 -13 -16 -1 -16 18 0 30 -27 16 -36 -6 -3 -9 -19 -7 -34 3 -21 1
-26 -13 -23 -20 6 -34 -26 -19 -41 8 -8 9 -6 5 7 -6 13 -2 17 14 17 22 0 28
-14 11 -25 -5 -3 -10 -15 -10 -25 0 -11 -12 -25 -26 -33 -23 -12 -24 -15 -10
-26 13 -11 16 -11 16 3 0 9 7 16 17 16 15 0 15 -1 0 -18 -10 -10 -17 -26 -17
-35 0 -9 -8 -21 -17 -26 -17 -10 -16 -10 2 -11 17 -1 18 -2 5 -13 -8 -7 -16
-25 -18 -42 -2 -16 -13 -46 -25 -65 -12 -19 -21 -37 -21 -40 3 -11 -52 -115
-63 -123 -7 -4 -13 -15 -13 -23 0 -9 -13 -28 -29 -44 -16 -16 -31 -37 -35 -46
-5 -13 -9 -14 -21 -4 -8 7 -23 9 -32 6 -13 -5 -11 -1 6 18 13 14 28 23 33 20
5 -3 7 0 6 7 -2 7 8 19 22 27 23 12 23 13 3 9 -22 -5 -22 -4 -5 18 9 13 22 22
27 22 6 -1 9 6 7 16 -2 12 4 17 25 18 24 2 25 2 5 6 -21 4 -21 6 -8 31 7 15
22 46 32 69 15 33 22 39 33 30 11 -10 13 -8 7 11 -5 13 -3 22 3 22 6 0 11 -4
11 -10 0 -5 6 -10 13 -10 7 1 3 8 -8 18 -11 9 -20 24 -19 32 2 40 -11 25 -40
-47 -57 -140 -125 -244 -232 -355 -127 -132 -286 -232 -474 -298 -97 -34 -132
-51 -86 -43 19 4 25 2 23 -8 -2 -8 -2 -11 0 -6 3 4 14 7 26 8 20 1 20 2 -3 9
l-25 8 27 1 c15 1 29 5 32 10 3 4 20 11 37 15 17 3 66 22 108 43 42 20 83 35
91 34 8 -2 12 0 8 5 -5 4 1 12 11 18 63 37 82 46 77 37 -10 -16 3 -13 21 4 12
12 18 13 29 4 12 -10 13 -9 8 5 -3 9 -11 16 -16 16 -6 0 -5 7 2 15 8 9 21 13
34 10 15 -5 17 -4 8 3 -11 7 -9 10 7 15 12 3 24 1 27 -4 7 -12 -15 -41 -27
-33 -5 2 -11 -7 -15 -21 -4 -15 -15 -28 -30 -31 -13 -4 -32 -16 -42 -28 -9
-13 -31 -26 -47 -30 -17 -4 -39 -16 -50 -26 -11 -10 -32 -20 -47 -22 -16 -2
-35 -13 -43 -23 -8 -11 -15 -15 -15 -7 0 6 -5 12 -11 12 -5 0 -7 -4 -4 -10 5
-9 -17 -14 -30 -7 -2 1 -12 -8 -20 -20 -9 -12 -22 -20 -30 -17 -17 7 -9 31 13
37 15 4 15 5 0 6 -18 1 -42 -32 -31 -43 3 -3 -3 -6 -15 -6 -12 0 -22 -5 -22
-11 0 -5 -4 -7 -10 -4 -5 3 -10 1 -10 -6 0 -7 -10 -9 -24 -7 -15 3 -27 0 -30
-8 -3 -8 -20 -14 -38 -15 -18 -1 -44 -5 -58 -9 -23 -7 -24 -8 -3 -9 12 -1 45
4 73 10 28 6 54 9 56 6 7 -7 -76 -24 -146 -31 -39 -4 -48 -3 -30 3 21 8 18 9
-15 6 -60 -5 -62 -6 -35 -15 48 -15 -244 -11 -336 5 -287 50 -556 185 -732
368 -62 65 -71 80 -52 92 5 3 10 1 10 -5 0 -7 6 -5 15 4 19 19 19 32 0 16 -13
-10 -15 -9 -15 8 0 16 5 20 18 16 13 -5 14 -4 3 4 -7 5 -22 7 -34 4 -14 -3
-18 -1 -13 6 4 7 2 12 -3 12 -6 0 -11 7 -11 16 0 11 4 14 13 8 7 -5 1 1 -13
13 -14 13 -29 23 -34 23 -4 0 -5 7 -2 16 4 10 1 14 -6 12 -25 -9 -20 -37 6
-44 17 -4 26 -13 26 -25 0 -10 9 -28 21 -40 13 -13 18 -27 14 -37 -5 -13 -14
-4 -40 36 -18 30 -41 62 -49 71 -21 23 -30 102 -14 113 9 5 8 8 -4 8 -14 0
-18 -8 -18 -32 -1 -33 -1 -32 -25 17 -34 68 -50 116 -46 140 4 30 11 32 28 10
8 -11 13 -14 11 -6 -2 8 -12 19 -21 25 -13 8 -20 6 -30 -8 -13 -18 -15 -17
-19 12 -2 18 -1 32 3 32 10 0 39 29 39 40 0 16 -40 18 -49 2 -7 -13 -11 -8
-16 21 -4 20 -11 40 -16 43 -5 3 -9 10 -9 15 0 6 4 8 9 5 5 -4 12 0 14 6 4 8
6 7 6 -4 1 -9 5 -20 11 -23 6 -3 7 1 4 9 -3 9 -1 16 6 16 6 0 8 5 5 10 -3 6
-17 10 -30 10 -20 0 -24 6 -30 49 -7 52 7 90 35 92 10 0 11 2 2 6 -6 2 -10 10
-6 16 3 7 -6 -1 -21 -18 l-26 -30 6 52 c4 28 3 59 -3 68 -14 25 -15 -86 -2
-197 24 -197 90 -366 220 -563 91 -138 186 -233 317 -319 227 -149 476 -226
729 -226 268 0 518 69 747 207 31 19 55 38 52 43 -3 5 0 12 6 16 8 5 9 3 4 -6
-5 -8 -3 -11 6 -8 8 3 13 10 12 16 -1 5 5 16 15 24 15 12 16 11 3 -4 -7 -10
-9 -18 -3 -18 12 0 34 25 27 32 -3 2 7 15 23 29 l27 24 -25 -29 c-14 -16 -19
-27 -13 -25 19 6 173 161 173 173 0 6 -14 -5 -30 -24 -16 -19 -30 -32 -30 -27
0 11 62 78 68 72 7 -6 32 15 32 27 0 5 -5 6 -12 2 -7 -5 -8 -3 -4 5 5 7 11 10
14 7 7 -7 32 13 32 26 0 5 -5 6 -12 2 -7 -4 -8 -3 -4 5 4 6 11 9 16 6 12 -7
62 83 54 97 -4 6 -3 8 3 5 6 -4 15 5 22 19 6 14 7 23 1 19 -6 -3 -7 1 -4 9 3
9 10 14 14 11 4 -3 19 23 34 56 27 62 33 86 16 59 -5 -8 -10 -10 -10 -4 0 6 7
17 15 24 9 7 14 19 11 27 -4 9 -1 11 6 7 7 -5 9 0 6 14 -3 12 -2 22 3 24 5 2
11 19 13 39 2 20 7 42 11 49 5 8 8 42 7 77 0 42 3 61 10 57 7 -5 9 24 4 92 -3
55 -6 108 -6 119 -2 46 -44 211 -72 283 -36 88 -81 175 -112 213 -12 14 -28
37 -36 50 -8 12 -25 33 -37 46 -13 13 -22 25 -20 27 1 2 -33 37 -75 78 -43 41
-78 72 -78 69 0 -3 -12 8 -26 24 -14 17 -22 23 -19 15 4 -8 -3 -4 -14 10 -11
14 -21 21 -21 16 0 -6 -7 -1 -15 10 -8 10 -15 15 -15 10 0 -6 -7 -1 -15 10 -8
10 -15 16 -15 12 0 -5 -9 1 -20 12 -12 12 -25 18 -29 15 -5 -2 -11 2 -15 10
-3 8 -15 15 -26 15 -11 0 -20 4 -20 9 0 10 -38 24 -57 22 -7 -1 -13 3 -13 8 0
6 -7 7 -17 4 -11 -4 -14 -3 -9 5 5 8 -3 14 -23 18 -17 4 -33 5 -37 4 -4 -1
-10 4 -15 11 -4 7 -21 12 -38 12 -17 0 -31 4 -31 9 0 5 -5 6 -11 2 -6 -3 -15
-1 -19 6 -4 7 -26 13 -49 14 -22 0 -41 4 -41 8 0 10 -12 10 -29 -1z m754
-1918 c-2 -10 -4 -21 -4 -25 -1 -5 -7 -8 -15 -8 -7 0 -16 -14 -20 -31 -5 -28
-8 -30 -23 -18 -9 8 -14 9 -10 3 3 -5 -4 -21 -16 -35 l-22 -24 -20 21 -21 20
23 18 c13 9 23 12 23 6 0 -6 4 -9 10 -5 5 3 7 12 4 20 -3 7 4 18 15 25 12 6
21 7 21 3 0 -4 5 0 11 10 6 9 15 15 20 11 5 -3 9 -2 8 3 -3 15 1 23 10 23 5 0
8 -8 6 -17z m-485 -397 c0 -7 -131 -48 -136 -43 -3 2 21 13 53 24 60 21 83 26
83 19z"/>
<path d="M1564 2689 c-4 -8 0 -9 15 -4 12 4 21 2 21 -4 0 -6 7 -8 15 -5 8 4
12 10 9 15 -7 13 -51 11 -60 -2z"/>
<path d="M1410 2633 c-74 -6 -239 -43 -315 -70 -104 -37 -213 -94 -306 -161
-104 -74 -279 -249 -279 -279 0 -13 50 -59 50 -47 1 5 8 -2 16 -16 8 -14 13
-17 10 -7 -5 15 -2 17 17 12 36 -12 38 -11 54 13 15 22 15 23 -5 29 -22 5 -31
23 -12 23 6 0 10 6 10 13 0 8 -7 14 -15 14 -9 0 -14 -6 -11 -13 3 -8 1 -16 -4
-19 -6 -4 -10 0 -10 7 -1 7 -11 0 -24 -16 -15 -17 -26 -24 -30 -17 -7 11 12
56 21 47 9 -9 31 18 25 33 -4 11 -1 11 17 1 18 -9 29 -9 52 0 16 7 36 10 45 6
9 -3 21 -3 27 1 7 5 21 8 32 8 11 0 21 8 23 18 3 14 -2 17 -24 13 -15 -3 -32
-10 -37 -15 -6 -6 -19 -6 -32 -1 -17 6 -25 5 -28 -4 -6 -16 -45 -28 -52 -16
-3 4 15 26 39 48 24 22 41 43 38 46 -3 3 2 6 11 6 9 0 17 5 17 10 0 6 5 10 11
10 7 0 22 11 35 25 13 14 27 25 32 25 5 0 15 6 21 14 7 8 21 13 31 11 11 -2
19 1 17 8 -1 7 6 11 17 9 11 -2 15 1 11 7 -3 6 1 11 9 11 8 0 18 -4 21 -10 3
-5 1 -10 -4 -10 -6 0 -11 -5 -11 -12 0 -6 3 -8 7 -5 3 4 15 -1 26 -10 18 -17
20 -17 31 -1 10 14 19 15 52 7 66 -17 76 -30 65 -80 -13 -56 -14 -79 -2 -79 6
0 12 19 14 43 l3 42 14 -32 c14 -32 30 -44 30 -23 0 6 -9 29 -21 51 -11 23
-18 43 -15 46 3 3 27 -13 54 -35 l48 -41 41 14 c70 24 174 37 272 33 72 -2 95
0 99 10 3 11 -8 13 -52 10 -55 -3 -56 -2 -56 23 0 15 7 32 15 39 8 7 15 18 15
24 0 7 20 25 44 40 28 18 46 37 49 53 l5 25 -27 -29 c-35 -41 -78 -67 -110
-68 -31 0 -41 -31 -16 -49 12 -8 15 -19 11 -34 -6 -18 -15 -21 -79 -21 -71 -1
-146 -18 -184 -42 -17 -10 -26 -7 -66 22 -53 40 -64 67 -42 113 12 25 21 33
36 29 10 -3 19 0 19 6 0 6 9 11 20 11 11 0 20 5 20 11 0 7 -7 8 -17 4 -10 -4
-36 -9 -57 -11 -22 -2 -44 -8 -49 -13 -6 -6 -2 -8 13 -4 22 6 22 5 6 -25 -9
-17 -16 -38 -16 -46 0 -25 -14 -26 -75 -7 -50 16 -61 16 -70 5 -7 -9 -15 -11
-25 -4 -12 8 -12 10 5 10 18 1 18 2 -2 10 -26 11 -30 26 -8 28 8 1 22 3 30 4
8 1 16 7 19 15 3 7 12 13 21 13 8 0 15 5 15 11 0 10 15 7 60 -9 13 -5 13 -3 2
10 -10 12 -10 18 -1 23 6 4 15 2 19 -5 5 -9 9 -8 13 3 5 13 32 23 97 34 13 2
28 10 32 16 6 9 8 8 8 -2 0 -11 3 -11 15 -1 8 7 15 9 15 5 0 -4 7 -2 15 5 16
13 290 24 309 12 6 -3 24 -7 40 -8 73 -6 86 -9 86 -17 0 -4 9 -3 20 3 17 9 20
8 20 -12 0 -21 0 -21 15 -2 11 15 14 16 15 3 0 -9 9 -15 23 -15 43 -1 87 -16
80 -28 -4 -6 2 -4 12 4 14 11 19 12 22 3 3 -7 16 -13 29 -13 13 0 24 -4 24 -8
0 -5 18 -15 40 -22 22 -7 40 -16 40 -20 0 -9 -41 -46 -46 -42 -2 1 -4 -1 -5
-5 0 -5 7 -9 15 -11 9 -2 16 0 16 5 0 4 7 16 14 26 13 17 17 17 50 3 20 -8 36
-19 36 -24 0 -6 11 -13 25 -16 53 -13 13 -49 -53 -47 -37 1 -88 -24 -136 -69
l-46 -42 -52 25 c-29 13 -61 27 -70 30 -24 8 -24 78 -2 113 24 36 71 59 90 43
11 -9 18 -9 26 -1 9 9 7 12 -10 12 -12 0 -22 5 -22 10 0 13 -57 -15 -87 -42
-12 -11 -26 -17 -32 -13 -10 6 -151 -73 -151 -86 0 -3 22 -10 50 -15 39 -8 50
-8 54 3 5 13 -10 18 -49 15 -17 -1 -16 2 9 22 47 39 75 51 87 39 8 -8 4 -22
-15 -49 -30 -45 -32 -54 -10 -54 16 0 121 -50 157 -75 12 -8 25 -15 29 -15 4
0 31 21 59 46 54 48 113 78 174 90 19 3 33 10 30 14 -3 5 -1 12 5 15 6 4 9 1
8 -6 -2 -7 6 -14 17 -16 53 -10 65 -14 60 -24 -4 -5 -21 -7 -40 -3 -64 12
-147 -35 -215 -121 -18 -22 -36 -40 -40 -40 -5 0 -12 -4 -17 -9 -5 -5 -3 -6 5
-2 16 9 15 1 -3 -35 -9 -17 -21 -27 -27 -23 -6 4 -8 3 -4 -4 8 -13 -14 -63
-25 -57 -4 3 -5 -3 -2 -14 3 -11 -5 -29 -20 -45 -37 -39 -125 -318 -162 -512
-15 -78 -12 -229 5 -219 4 2 10 35 13 72 3 37 18 118 32 178 15 61 28 115 29
122 1 7 5 16 9 19 4 4 7 18 7 30 0 13 13 63 29 111 36 108 100 247 101 216 0
-12 -4 -25 -10 -28 -5 -3 -10 -16 -10 -29 0 -12 -4 -26 -9 -31 -6 -6 -12 -21
-14 -35 -3 -14 -15 -57 -27 -95 -12 -39 -23 -84 -25 -101 -1 -17 -5 -46 -8
-65 -4 -20 0 -14 9 16 47 157 116 353 132 375 9 14 28 50 42 80 52 117 153
240 196 240 11 0 2 -11 -22 -29 -47 -33 -85 -76 -120 -137 l-26 -43 56 -72
c31 -39 56 -66 56 -60 0 24 -28 77 -54 100 -14 14 -26 31 -26 38 0 41 118 163
157 163 7 0 13 4 13 9 0 5 11 11 25 13 16 3 25 1 25 -7 0 -7 7 -16 16 -19 9
-3 14 -13 11 -21 -4 -10 -1 -12 11 -8 15 6 15 5 3 -10 -14 -18 -51 -23 -51 -8
0 6 -9 9 -21 8 -19 -1 -19 -2 -3 -14 10 -7 26 -13 35 -13 10 0 21 -4 24 -10 3
-5 11 -10 17 -10 7 0 7 5 -1 14 -9 10 -8 15 3 19 14 6 36 -10 36 -26 0 -5 10
-18 22 -29 23 -19 23 -20 4 -34 -11 -8 -25 -14 -31 -14 -12 0 -49 -40 -42 -46
2 -2 22 0 43 5 37 8 37 9 9 10 l-30 2 25 13 c14 8 28 12 32 10 5 -3 8 2 8 10
0 9 5 16 10 16 6 0 10 -4 10 -10 0 -5 10 -21 22 -35 27 -31 35 -75 15 -75 -8
0 -20 7 -27 15 -10 12 -9 15 6 15 15 0 16 2 5 9 -11 7 -11 9 0 13 8 3 9 7 3
11 -6 3 -21 -1 -32 -9 l-22 -15 29 -30 c24 -24 36 -28 58 -24 26 6 26 5 10 -8
-16 -14 -16 -15 5 -21 18 -5 20 -8 9 -15 -7 -5 -10 -14 -6 -20 5 -9 11 -7 22
6 8 10 12 12 8 5 -4 -7 -1 -20 7 -29 9 -12 10 -15 0 -9 -15 9 -40 -14 -34 -32
3 -10 7 -10 19 0 14 11 15 10 9 -12 l-7 -25 15 25 c9 15 15 19 16 10 0 -19
-38 -82 -56 -93 -8 -5 -12 -12 -9 -18 10 -15 22 -10 28 10 5 19 67 48 67 30 0
-5 -7 -12 -15 -15 -8 -4 -15 -14 -14 -23 0 -10 2 -11 6 -3 6 16 23 16 23 0 0
-7 -12 -22 -27 -34 -27 -21 -27 -23 -10 -42 17 -19 17 -20 0 -27 -10 -5 -20
-8 -23 -7 -3 0 -17 -8 -30 -19 -20 -15 -22 -19 -7 -19 9 0 17 5 17 10 0 6 10
8 23 5 17 -4 25 0 33 19 8 16 8 28 2 34 -6 6 -7 16 -1 27 9 15 11 15 23 0 11
-13 10 -14 -5 -9 -13 5 -16 4 -11 -4 4 -7 14 -12 22 -12 19 0 18 -19 -1 -26
-22 -9 -18 -41 5 -47 25 -6 25 -15 1 -46 -17 -22 -19 -23 -49 -7 -41 21 -40
26 2 19 45 -7 57 14 14 25 -18 5 -34 5 -36 0 -2 -4 -40 -8 -85 -8 l-82 0 -61
-55 c-55 -49 -62 -59 -67 -102 -15 -125 -102 -279 -230 -407 l-90 -90 29 -23
c25 -19 66 -39 179 -83 19 -7 19 -8 2 -15 -24 -10 -160 17 -217 43 -68 30 -71
31 -130 4 -112 -50 -182 -63 -335 -62 -139 0 -218 18 -341 74 l-82 38 -41 -22
c-23 -11 -51 -30 -62 -41 -15 -15 -24 -17 -39 -9 -18 10 -19 9 -9 -13 9 -21 7
-31 -18 -67 -15 -24 -32 -51 -38 -61 -6 -11 -21 -19 -37 -19 -14 0 -35 -3 -45
-6 -15 -5 -15 -4 -3 5 13 9 13 11 0 12 -8 1 -18 1 -22 0 -5 0 -8 3 -8 9 0 5
23 10 50 10 28 0 50 4 50 9 0 4 -12 6 -26 3 -24 -4 -25 -2 -19 18 6 20 5 22
-11 15 -23 -10 -104 -13 -104 -4 0 4 7 9 15 13 22 8 18 36 -5 36 -18 0 -19 3
-10 20 6 11 9 20 8 21 -25 6 -50 8 -45 3 3 -4 1 -16 -5 -28 -10 -20 -10 -20 7
-6 16 13 18 13 13 0 -6 -21 -45 -25 -45 -5 0 8 3 15 7 15 4 0 7 7 7 15 0 13
-3 12 -19 -2 -18 -16 -18 -16 -12 0 4 11 1 17 -7 17 -11 0 -11 3 1 10 12 8 10
10 -10 11 l-25 1 25 7 c15 4 28 3 32 -3 20 -31 54 1 83 77 10 27 30 57 47 68
25 18 37 20 99 14 60 -6 75 -12 105 -40 33 -32 34 -35 21 -57 -20 -31 -30 -68
-19 -68 5 0 14 18 21 40 13 43 22 48 41 25 7 -8 19 -15 27 -15 11 0 13 3 5 13
-6 7 28 -6 76 -29 116 -56 170 -73 266 -85 82 -11 215 -5 294 12 70 15 182 62
182 76 0 17 6 18 -100 -17 -309 -101 -612 -32 -831 190 -159 161 -223 345
-215 610 3 93 -2 86 -19 -22 -5 -32 -13 -41 -70 -74 -36 -21 -65 -44 -65 -51
0 -7 -9 -13 -20 -13 -11 0 -20 4 -20 10 0 5 -3 9 -7 8 -16 -3 -63 15 -63 24 0
7 -5 6 -13 -1 -8 -6 -17 -8 -20 -4 -4 3 -7 -2 -7 -11 0 -15 6 -17 35 -12 20 4
35 3 35 -3 0 -20 -81 -24 -121 -6 -45 21 -50 35 -14 35 14 0 25 5 25 10 0 6
-9 10 -19 10 -25 0 -30 10 -21 34 5 15 9 16 15 7 4 -8 2 -17 -6 -22 -19 -12
-2 -11 21 1 15 8 22 5 34 -12 9 -12 18 -19 22 -15 3 3 -6 17 -20 31 -24 21
-26 27 -14 45 14 23 29 26 44 11 14 -14 39 14 29 31 -4 6 -10 7 -14 2 -3 -5
-27 -7 -52 -5 -42 3 -46 6 -46 30 0 24 0 25 13 7 20 -27 47 -30 33 -4 -5 11
-14 17 -18 14 -5 -3 -8 5 -7 18 1 18 7 23 30 22 34 0 46 20 16 28 -11 3 -20 1
-20 -4 0 -5 -4 -9 -10 -9 -16 0 -12 19 9 36 11 10 17 24 13 37 -3 13 -1 18 6
14 5 -4 12 -2 14 4 2 6 19 12 38 13 38 2 55 26 18 27 -12 0 -32 4 -42 8 -19 7
-19 8 2 29 12 12 23 25 25 30 1 4 9 6 17 5 11 -1 10 2 -3 12 -12 9 -15 15 -7
20 6 4 42 -23 83 -63 92 -90 119 -111 192 -153 72 -42 85 -47 150 -60 90 -19
146 -21 209 -9 61 11 61 12 176 133 114 121 122 136 24 46 -59 -55 -144 -111
-193 -127 -92 -32 -245 -6 -354 60 -106 65 -272 215 -324 295 -12 18 -18 21
-24 11 -5 -7 -8 -20 -8 -28 0 -10 3 -8 9 5 9 20 9 20 10 0 2 -11 2 -24 1 -28
-1 -5 3 -6 8 -3 5 3 13 0 19 -7 6 -8 -4 -39 -34 -102 -25 -49 -59 -135 -77
-190 -31 -97 -32 -105 -32 -275 0 -154 3 -185 24 -260 28 -98 67 -189 119
-277 36 -60 54 -74 67 -53 3 6 -1 10 -9 10 -8 0 -20 9 -26 20 -8 15 -8 20 3
20 7 0 19 -6 25 -12 10 -10 15 -10 22 2 8 12 10 12 10 -4 0 -11 -10 -30 -21
-43 -18 -18 -20 -25 -10 -37 10 -11 19 -13 39 -5 25 8 25 8 9 -5 -22 -17 -12
-42 26 -73 13 -10 25 -22 26 -28 6 -17 51 -55 51 -42 0 7 5 4 11 -6 6 -10 17
-16 27 -13 9 3 24 1 32 -5 12 -8 10 -9 -7 -4 -26 7 -36 -5 -17 -23 8 -7 14
-10 14 -6 0 4 10 -2 23 -14 12 -12 37 -22 54 -24 18 -1 30 -4 28 -6 -4 -4 20
-32 27 -32 2 0 4 12 4 28 2 29 61 133 93 163 10 10 21 22 22 26 2 4 22 20 45
35 l41 26 59 -29 c58 -28 151 -62 209 -75 43 -11 335 -14 335 -5 0 5 19 12 43
16 23 5 44 9 47 10 3 1 19 5 35 10 17 4 42 15 57 23 23 13 31 14 55 3 l28 -13
-24 -19 c-13 -10 -27 -16 -33 -13 -5 3 -18 -2 -29 -12 -10 -9 -19 -13 -19 -9
0 4 -8 1 -17 -7 -10 -8 -25 -16 -33 -16 -8 0 -33 -6 -55 -12 -22 -7 -62 -14
-90 -16 -192 -15 -182 -14 -267 -10 -32 2 -69 11 -83 20 -13 9 -41 16 -61 16
-37 0 -123 34 -136 54 -11 16 -52 -8 -67 -40 -7 -16 -17 -37 -22 -47 -14 -26
19 -79 44 -71 12 4 28 -2 43 -17 23 -21 26 -22 41 -6 15 15 17 15 27 -5 6 -12
26 -31 44 -41 31 -18 36 -19 64 -5 30 14 32 13 60 -16 27 -27 28 -31 11 -37
-10 -4 -22 -3 -27 1 -9 9 -36 -12 -36 -28 0 -19 25 -19 57 1 18 10 33 23 33
29 0 5 5 8 12 6 6 -2 22 6 36 19 30 28 38 28 59 3 23 -27 67 -25 93 3 21 21
22 21 35 3 12 -15 17 -17 29 -7 8 7 25 9 40 5 20 -5 26 -2 26 10 0 9 -7 16
-15 16 -8 0 -20 9 -27 20 -18 28 -36 25 -30 -5 3 -18 0 -25 -12 -25 -12 0 -16
10 -16 43 0 23 -3 52 -6 65 -6 22 -4 23 37 20 l44 -3 0 -41 c1 -41 20 -78 35
-69 5 3 11 1 15 -5 11 -18 42 -11 52 12 l9 22 23 -23 23 -23 34 33 c24 23 37
30 45 22 7 -7 -1 -20 -26 -42 -20 -17 -34 -35 -31 -39 3 -5 -6 -25 -19 -45
-30 -44 -31 -51 -5 -35 11 7 20 20 20 28 1 12 3 12 11 -2 14 -24 51 -8 60 25
4 15 3 27 -2 27 -5 0 -9 -5 -9 -11 0 -5 -4 -8 -9 -5 -5 4 -7 -4 -4 -16 3 -17
2 -19 -5 -9 -8 11 -10 11 -15 0 -3 -8 -6 -2 -6 13 -1 22 4 29 27 34 15 4 32
11 37 18 6 6 32 12 59 12 27 1 51 6 55 11 9 14 41 24 41 12 0 -13 -63 -39
-100 -42 -15 -1 -26 -5 -23 -9 2 -5 -2 -8 -10 -8 -12 0 -27 -19 -27 -34 0 -2
16 2 35 8 19 6 35 14 35 18 0 5 11 8 25 8 14 0 25 4 25 10 0 5 7 6 17 3 11 -4
14 -3 9 5 -4 7 -1 12 7 12 21 0 28 47 9 62 -12 10 -16 10 -19 1 -3 -7 -19 -21
-38 -33 -26 -16 -38 -18 -58 -11 -19 8 -28 6 -37 -5 -12 -14 -40 -20 -40 -8 0
4 13 22 30 41 17 18 30 39 30 45 0 6 11 8 26 5 40 -7 53 31 31 90 l-17 45 28
-7 c15 -4 50 -10 77 -14 45 -6 56 -6 84 -2 5 0 11 10 14 21 4 16 -4 27 -34 45
-21 14 -42 25 -46 25 -3 0 -15 8 -26 17 -13 12 -17 13 -12 4 5 -8 -6 -5 -23 8
-18 12 -32 26 -32 29 0 4 27 33 59 65 33 31 74 79 92 107 18 27 38 50 45 50 6
0 19 -12 29 -26 9 -14 19 -23 23 -20 3 4 -9 21 -27 40 -22 22 -29 36 -21 41
11 7 27 42 35 75 2 8 13 44 24 80 12 36 21 78 21 93 0 30 62 95 116 123 38 20
126 18 150 -3 36 -32 68 -47 72 -34 2 6 12 11 23 11 17 0 19 7 19 58 0 234
-142 540 -334 719 -217 203 -500 321 -801 336 -49 2 -110 2 -135 0z m-786
-529 c9 -8 16 -19 16 -23 0 -12 -39 -6 -53 8 -10 11 -7 12 13 6 24 -7 24 -7 5
9 -11 8 -15 16 -8 16 6 0 19 -7 27 -16z m-234 -442 c0 -20 -26 -41 -39 -33
-12 8 -12 12 -2 25 14 17 41 22 41 8z m307 -139 c-3 -2 -31 -3 -63 -1 l-59 3
48 24 c26 14 53 32 60 40 10 12 13 8 15 -23 2 -21 1 -40 -1 -43z m-317 -28 c8
-9 22 -13 39 -9 25 5 25 5 4 -8 -12 -7 -22 -17 -23 -23 -1 -5 -6 -9 -11 -8 -4
2 -6 -4 -3 -12 3 -8 9 -13 12 -12 4 1 8 -2 9 -8 2 -5 -6 -10 -16 -10 -11 0
-23 -3 -27 -7 -4 -5 -12 -8 -18 -8 -6 0 -2 7 8 15 11 8 17 15 13 15 -4 0 -1
13 7 29 9 16 12 31 9 35 -10 10 -43 7 -43 -4 0 -5 7 -10 16 -10 14 0 14 -3 4
-15 -20 -24 -28 -18 -27 20 1 38 24 48 47 20z m150 11 c0 -5 -98 -69 -115 -75
-5 -2 5 13 24 32 19 20 43 38 55 40 12 2 24 5 29 6 4 0 7 -1 7 -3z m146 -6
c14 0 24 -8 27 -22 4 -12 5 -23 3 -25 -1 -2 -32 11 -67 27 -61 30 -62 31 -24
26 22 -3 50 -6 61 -6z m-35 -37 l66 -28 13 -62 c7 -35 27 -94 45 -133 l34 -69
-36 -46 c-19 -26 -33 -49 -30 -52 3 -3 20 15 38 40 l32 46 19 -24 c10 -13 18
-25 18 -28 0 -3 -16 -15 -36 -26 -20 -12 -34 -24 -31 -28 3 -3 21 4 39 15 29
18 35 19 52 7 20 -15 18 -17 -29 -29 -11 -3 -2 -4 19 -3 24 1 41 -3 44 -11 3
-10 -3 -11 -25 -5 -15 4 -56 7 -90 7 -35 0 -63 4 -63 9 0 6 -8 3 -17 -5 -19
-16 -131 -53 -148 -49 -5 2 -29 3 -53 3 -67 2 -34 20 45 25 37 2 83 8 103 13
27 7 18 8 -35 4 -38 -3 -78 -8 -87 -10 -11 -3 -18 0 -18 9 0 7 -6 14 -12 15
-7 0 -26 4 -42 9 -27 8 -28 10 -11 26 21 21 19 24 -19 31 -36 7 -44 15 -26 26
24 15 34 11 19 -7 -12 -14 -12 -16 0 -8 7 4 22 8 32 9 11 1 19 5 19 11 0 10
-3 11 -55 14 l-30 1 25 20 c14 11 21 20 16 20 -17 0 27 40 45 40 10 0 21 5 24
10 8 13 -5 35 -14 23 -9 -13 -126 -1 -126 14 0 6 -3 15 -7 19 -12 12 -9 21 6
21 9 0 12 -6 8 -16 -5 -14 -3 -14 11 -2 23 18 21 31 -2 31 -11 0 -23 5 -27 12
-5 7 -3 8 7 3 12 -8 12 -6 0 8 -12 16 -9 17 33 17 39 0 46 3 46 20 0 22 93 90
124 90 11 0 50 -12 87 -27z m-221 -217 c0 -19 -37 -63 -46 -54 -4 4 -1 14 5
22 9 11 9 16 0 21 -8 6 -7 10 2 16 21 13 39 11 39 -5z m274 -306 c-26 -59 -64
-98 -64 -66 0 8 5 16 10 18 6 2 -19 3 -55 3 -60 0 -64 1 -46 14 12 7 21 18 21
24 0 30 132 97 154 77 4 -4 -4 -36 -20 -70z m1316 -257 c0 -2 -7 -3 -15 -3 -8
0 -21 15 -29 33 l-14 32 -1 -27 c-1 -33 -3 -33 -39 -10 l-27 17 23 -36 c26
-42 27 -49 9 -49 -13 0 -57 92 -57 118 0 16 17 16 27 0 4 -7 16 -20 26 -28 18
-13 19 -12 16 21 -6 66 11 65 47 -2 19 -35 34 -64 34 -66z m-925 81 c1 -5 5
-27 9 -49 l8 -40 15 38 c8 20 22 37 30 37 8 0 13 -3 11 -7 -2 -5 -14 -32 -27
-60 -33 -73 -42 -71 -57 12 l-7 40 -15 -37 c-8 -21 -21 -38 -28 -38 -18 0 -18
1 13 65 24 48 47 67 48 39z m766 -76 c15 -54 3 -78 -38 -78 -18 0 -28 9 -39
35 -19 47 -22 77 -6 82 6 3 12 -3 12 -11 0 -9 7 -33 15 -53 12 -29 18 -33 29
-24 13 11 13 18 0 53 -14 39 -10 68 7 51 4 -4 13 -29 20 -55z m-579 15 c10 -9
18 -30 18 -46 0 -65 -70 -91 -109 -41 -27 34 -26 50 4 79 28 29 61 32 87 8z
m456 1 c-3 -3 0 -29 8 -57 17 -65 17 -67 0 -67 -8 0 -16 15 -20 38 -4 20 -9
49 -12 65 -4 21 -2 27 12 27 9 0 15 -3 12 -6z m-316 -31 c21 -19 24 -62 4 -88
-9 -13 -25 -19 -51 -18 -20 1 -38 3 -41 6 -2 2 -2 30 2 61 7 54 8 56 37 56 17
0 39 -7 49 -17z m138 2 c0 -10 -10 -15 -30 -15 -20 0 -30 -5 -30 -15 0 -10 10
-15 31 -15 17 0 28 -4 24 -10 -3 -5 -17 -10 -31 -10 -15 0 -24 -6 -24 -15 0
-10 10 -15 30 -15 20 0 30 -5 30 -15 0 -11 -11 -15 -40 -15 l-40 0 0 70 0 70
40 0 c29 0 40 -4 40 -15z"/>
<path d="M1194 676 c-12 -31 1 -51 33 -54 27 -3 33 1 39 22 3 14 3 30 -1 35
-9 16 -65 13 -71 -3z"/>
<path d="M1350 630 c0 -33 3 -40 20 -40 28 0 48 44 30 65 -7 8 -21 15 -31 15
-15 0 -19 -8 -19 -40z"/>
<path d="M795 2534 c-47 -31 -73 -56 -32 -31 15 10 27 15 27 12 0 -3 10 3 22
14 11 11 26 18 31 14 6 -3 7 -1 3 5 -9 15 -5 16 -51 -14z"/>
<path d="M1545 2530 c43 -22 61 -25 69 -11 4 5 -3 7 -14 4 -12 -3 -22 0 -25 9
-3 7 -20 15 -38 16 l-32 3 40 -21z"/>
<path d="M1268 2533 c-10 -2 -18 -9 -18 -14 0 -6 8 -5 20 1 21 11 60 -2 60
-20 0 -16 27 -11 34 6 9 24 7 28 -7 15 -8 -6 -17 -7 -23 -2 -13 12 -46 19 -66
14z"/>
<path d="M1685 2525 c-16 -8 -23 -14 -15 -14 8 -1 22 3 29 8 9 6 22 6 34 -1
13 -7 23 -6 31 2 8 8 7 10 -5 5 -10 -4 -20 -2 -24 4 -8 13 -12 13 -50 -4z"/>
<path d="M1835 2480 c-10 -22 -16 -43 -13 -46 3 -3 9 7 12 22 7 25 8 26 22 8
14 -18 15 -18 5 3 -6 12 -8 29 -5 37 13 33 -4 14 -21 -24z"/>
<path d="M1035 2440 c-3 -5 -16 -10 -28 -10 -16 -1 -13 -4 13 -14 19 -7 44
-17 55 -22 18 -7 18 -6 6 9 -7 9 -20 17 -28 17 -9 0 -13 6 -9 15 6 17 0 20 -9
5z"/>
<path d="M620 2405 c-13 -14 -20 -28 -17 -32 4 -3 7 -1 7 6 0 7 4 10 9 6 10
-6 24 11 27 33 3 17 1 16 -26 -13z"/>
<path d="M826 2340 c-11 -11 -25 -20 -32 -20 -6 0 -15 -11 -18 -24 -4 -15 -16
-26 -32 -30 -15 -4 -24 -10 -20 -13 3 -3 1 -13 -6 -20 -6 -8 5 -4 25 9 20 13
40 33 43 46 4 12 14 22 25 22 10 0 22 7 27 17 8 13 19 15 56 10 34 -5 46 -3
46 6 0 23 -91 20 -114 -3z"/>
<path d="M460 2240 c-35 -42 -39 -50 -22 -50 10 0 24 -10 30 -22 l11 -23 0 22
c1 12 7 23 14 26 6 2 2 2 -11 0 -18 -3 -22 1 -20 14 2 10 10 23 18 30 8 7 11
13 6 13 -5 0 -1 9 9 20 10 11 16 20 12 20 -3 0 -24 -22 -47 -50z"/>
<path d="M527 2283 c-12 -12 -8 -45 6 -40 6 2 11 11 9 20 -1 8 5 18 15 20 15
4 14 5 -3 6 -11 0 -24 -2 -27 -6z"/>
<path d="M1335 2265 c-121 -27 -222 -76 -326 -158 -89 -71 -203 -217 -180
-232 6 -3 18 9 27 27 16 31 48 76 84 121 8 10 47 43 85 72 221 170 513 206
777 95 52 -22 68 -25 68 -11 0 14 -135 67 -217 85 -86 19 -235 20 -318 1z"/>
<path d="M1425 2223 c-212 -25 -397 -131 -513 -292 -41 -57 -44 -65 -29 -76
20 -14 216 -19 237 -5 10 7 -8 10 -62 10 -74 0 -76 1 -70 23 5 19 4 20 -11 9
-15 -13 -57 -8 -57 6 1 4 10 18 21 31 17 21 21 22 37 9 9 -9 24 -13 32 -10 13
4 13 3 2 -10 -11 -14 -9 -17 18 -23 16 -4 28 -11 24 -16 -3 -5 2 -9 10 -9 25
0 18 27 -8 34 -14 3 -27 15 -31 25 -4 12 -12 17 -24 14 -28 -7 -33 12 -11 38
l19 24 71 -73 c39 -40 76 -70 81 -66 6 3 -7 21 -28 39 -21 18 -56 49 -78 68
l-40 36 24 18 c13 10 38 31 56 46 31 26 34 27 45 10 10 -16 11 -16 6 -1 -7 23
34 51 106 70 43 12 59 13 67 5 13 -17 14 -29 3 -36 -7 -4 -5 -14 5 -26 15 -19
15 -19 8 4 -5 16 -4 21 4 17 6 -4 10 -30 10 -59 -2 -49 -2 -50 -9 -17 l-7 35
-3 -40 c-2 -39 -3 -39 -10 -10 -4 17 -8 22 -9 12 0 -10 -5 -15 -11 -12 -6 3
-7 -1 -4 -9 10 -25 -4 -52 -18 -38 -7 7 -20 12 -29 12 -10 0 -21 5 -25 12 -5
7 -2 9 7 6 13 -5 14 4 11 55 -4 56 -3 60 11 48 9 -7 15 -18 14 -24 -1 -6 6
-13 16 -15 24 -5 21 11 -7 37 -31 29 -46 20 -46 -29 0 -46 -9 -72 -21 -64 -12
7 -11 61 1 69 16 10 2 25 -23 25 -16 0 -18 -3 -9 -12 7 -7 12 -27 12 -46 0
-25 7 -40 27 -56 15 -11 30 -20 33 -19 3 1 6 -7 6 -17 0 -16 -4 -15 -34 8 -19
14 -38 35 -42 46 -6 15 -9 16 -9 5 -1 -8 13 -28 29 -44 35 -33 37 -43 11 -41
-11 0 -42 26 -70 56 -28 30 -51 51 -51 45 0 -5 25 -35 56 -66 44 -45 52 -58
39 -63 -9 -3 -13 -2 -10 3 3 5 0 13 -6 17 -8 4 -9 3 -5 -4 15 -25 -10 -10 -54
30 -34 33 -32 30 10 -15 30 -31 57 -57 61 -57 6 0 49 31 147 105 8 5 25 20 38
33 14 12 28 22 31 22 4 0 44 19 90 43 79 40 83 44 83 76 0 30 2 33 23 27 12
-3 32 -6 44 -6 17 0 21 -4 16 -17 -5 -13 -2 -15 18 -10 13 4 41 7 62 7 20 0
37 4 37 8 0 13 -96 40 -183 51 -77 11 -103 11 -162 4z m134 -60 c0 -21 -3 -31
-6 -23 -4 8 -12 21 -20 28 -11 11 -13 11 -13 -3 0 -9 -4 -14 -9 -11 -5 3 -9 0
-8 -7 0 -6 -1 -21 -2 -32 -2 -20 -2 -20 -11 0 -8 18 -9 18 -9 2 -1 -10 -5 -16
-10 -12 -5 3 -12 -3 -14 -12 -3 -10 -5 -2 -6 18 -1 23 -9 43 -22 55 l-21 19
28 5 c16 3 50 7 77 8 l47 2 -1 -37z m-147 0 c21 -20 28 -36 27 -62 0 -29 -2
-32 -9 -16 -5 11 -9 14 -9 8 -1 -7 -5 -13 -10 -13 -5 0 -8 8 -6 18 1 9 0 11
-2 5 -6 -16 -23 -17 -23 -1 0 6 -3 8 -7 4 -5 -4 1 -14 12 -22 20 -15 20 -15 0
-30 -19 -14 -20 -13 -23 18 -2 18 -11 41 -19 51 -9 9 -13 17 -8 17 4 0 2 7 -5
15 -10 12 -10 16 1 19 8 2 21 7 29 9 8 3 17 6 19 6 3 1 18 -11 33 -26z"/>
<path d="M1084 2199 c-60 -32 -135 -93 -177 -143 -43 -52 -36 -63 9 -15 27 30
166 138 202 158 35 20 4 19 -34 0z"/>
<path d="M396 2155 c-9 -14 -23 -36 -32 -50 -9 -14 -12 -25 -8 -25 5 0 21 23
36 50 29 53 32 68 4 25z"/>
<path d="M1785 2140 c-144 -17 -269 -76 -367 -171 -61 -59 -68 -71 -68 -105 0
-38 15 -38 22 0 1 10 12 24 23 30 11 6 23 16 27 21 5 6 8 5 8 -3 0 -8 11 0 25
16 14 17 25 34 25 38 0 5 -9 -2 -20 -16 -10 -14 -22 -22 -25 -18 -9 8 80 98
97 98 7 0 -3 -14 -22 -31 -37 -33 -24 -29 25 6 32 24 65 39 78 37 4 -1 7 2 7
7 0 5 26 17 58 27 31 10 50 20 40 22 -9 2 -33 -4 -54 -13 -20 -8 -39 -14 -41
-11 -13 12 174 63 198 53 8 -3 2 -6 -13 -6 -16 -1 -28 -6 -28 -12 0 -6 -7 -8
-16 -5 -8 3 -12 2 -9 -4 3 -5 -7 -12 -22 -16 -42 -10 -103 -43 -103 -55 0 -8
4 -8 13 -2 19 15 108 46 114 40 3 -3 -4 -12 -16 -19 -20 -12 -21 -22 -22 -183
-1 -93 -3 -163 -6 -154 -4 17 -52 15 -54 -2 -1 -5 -2 -14 -3 -21 0 -6 -6 -13
-13 -15 -6 -2 -10 3 -9 12 4 25 34 55 56 55 18 0 20 7 20 72 l0 71 -23 -21
c-24 -22 -43 -30 -32 -13 3 5 1 12 -4 16 -6 3 -8 -3 -6 -15 2 -11 -1 -22 -6
-26 -6 -3 -14 -17 -20 -31 -5 -13 -13 -22 -18 -18 -5 3 -12 1 -16 -4 -7 -12
32 -34 45 -26 6 3 10 19 10 34 0 30 43 80 54 62 4 -6 -2 -16 -14 -23 -12 -8
-20 -23 -20 -40 0 -33 -27 -68 -46 -61 -8 3 -11 10 -8 17 3 6 -1 3 -9 -6 -8
-10 -19 -18 -26 -18 -18 0 -13 -18 8 -30 14 -7 22 -7 27 2 5 7 3 8 -7 3 -12
-8 -12 -6 0 8 15 18 26 23 16 7 -3 -5 -1 -10 6 -10 8 0 7 -5 -2 -17 -8 -9 -13
-18 -11 -20 2 -3 0 -8 -4 -11 -4 -4 -4 -1 0 6 4 6 2 12 -3 12 -15 0 -14 -12 5
-38 15 -21 54 -31 54 -13 0 12 -29 22 -43 15 -7 -4 4 10 23 30 19 20 34 40 33
44 -1 4 1 9 3 11 2 2 4 -1 4 -7 0 -7 8 -12 18 -13 14 0 14 -2 -3 -8 -11 -5
-29 -19 -40 -31 l-20 -23 42 24 c35 20 45 33 60 79 10 30 18 60 19 65 0 6 13
36 27 69 15 32 27 60 27 63 0 2 14 32 30 65 17 34 28 63 25 66 -3 4 -22 -11
-43 -31 -30 -30 -38 -47 -43 -89 l-6 -53 -2 61 c-1 54 2 64 22 77 33 22 71 57
62 57 -4 0 -28 -16 -51 -36 l-44 -35 -1 -82 c0 -53 -3 -75 -9 -62 -6 15 -9 4
-12 -40 -2 -33 -5 -2 -6 70 l-2 130 39 43 c26 28 47 42 62 41 20 -1 19 -2 -7
-10 -18 -5 -34 -15 -37 -23 -5 -12 -2 -12 21 0 15 8 39 12 55 8 20 -4 27 -2
27 10 0 8 6 13 13 10 7 -2 24 7 37 21 l23 25 -59 -1 c-32 -1 -86 -5 -119 -9z"/>
<path d="M1110 2052 c0 -5 7 -15 15 -22 12 -10 19 -10 27 -2 14 14 11 17 -19
26 -13 4 -23 3 -23 -2z"/>
<path d="M610 2023 c0 -4 33 -23 73 -40 62 -28 68 -33 42 -34 -23 -1 -18 -3
19 -11 33 -6 52 -6 60 2 7 7 6 10 -5 10 -8 0 -44 15 -79 34 -73 38 -110 51
-110 39z"/>
<path d="M1603 2023 c-8 -3 -13 -26 -13 -63 0 -43 -4 -61 -17 -71 -15 -11 -16
-11 -5 1 14 17 16 96 2 105 -14 9 -76 -41 -101 -81 l-21 -34 38 -58 c21 -31
41 -59 44 -62 4 -3 10 -13 13 -23 12 -31 31 -13 31 29 1 29 5 38 16 36 8 -2
12 0 7 4 -4 4 3 19 15 32 13 14 18 22 11 18 -25 -14 -21 13 6 35 15 13 28 32
28 41 0 9 -4 15 -8 12 -4 -2 -10 10 -12 28 -3 26 -4 23 -5 -14 -2 -37 -9 -55
-32 -82 -20 -22 -27 -37 -20 -41 8 -5 7 -12 -4 -23 -8 -10 -16 -33 -19 -52 -4
-35 -4 -35 -5 5 -1 23 3 46 9 52 8 8 8 13 0 18 -8 4 -3 17 14 37 19 22 25 41
25 74 0 25 5 54 10 65 6 10 9 19 8 18 -2 0 -9 -3 -15 -6z m-35 -80 c3 -26 -3
-36 -32 -60 -20 -15 -36 -32 -36 -37 0 -5 6 -4 13 2 8 6 17 5 28 -7 13 -14 14
-20 2 -41 -9 -19 -13 -20 -13 -7 0 9 -6 17 -12 18 -10 0 -10 2 0 6 6 2 12 9
12 15 0 6 -6 8 -14 5 -16 -6 -36 11 -36 31 0 7 15 28 33 45 19 19 31 39 29 51
-3 12 1 17 10 14 7 -3 14 -18 16 -35z"/>
<path d="M2065 2009 c-4 -6 2 -17 14 -25 11 -8 32 -35 47 -59 26 -45 38 -58
28 -30 -4 8 -1 15 5 15 10 0 15 -14 12 -33 -1 -5 3 -6 8 -3 5 3 13 -7 19 -22
86 -218 82 -412 -12 -607 -24 -49 -37 -80 -27 -67 9 12 28 39 43 58 37 49 76
182 84 287 4 48 11 87 16 87 5 0 18 -5 29 -11 11 -5 28 -9 37 -7 10 3 2 9 -23
17 -22 7 -43 16 -47 20 -4 3 -14 40 -22 81 -15 74 -79 220 -96 220 -4 0 -27
20 -51 45 -45 47 -54 52 -64 34z"/>
<path d="M330 1970 c-9 -16 -8 -22 5 -26 9 -4 22 -1 28 6 10 10 7 11 -13 5
-25 -8 -25 -8 -6 14 11 11 14 21 8 21 -6 0 -16 -9 -22 -20z"/>
<path d="M1680 1955 c0 -20 -5 -45 -10 -55 -8 -16 -8 -18 5 -14 8 3 12 10 9
15 -3 5 -1 9 4 9 15 0 19 55 5 69 -11 9 -13 5 -13 -24z"/>
<path d="M1820 1915 c-17 -43 -29 -79 -27 -81 2 -3 18 30 36 72 17 43 29 79
27 81 -2 2 -18 -30 -36 -72z"/>
<path d="M2029 1965 c-1 -5 -1 -14 0 -19 1 -5 -2 -12 -7 -15 -12 -8 -56 -121
-50 -127 3 -3 8 7 12 20 3 14 12 25 18 23 7 -1 12 12 13 31 1 41 45 76 45 36
0 -8 -4 -13 -9 -10 -13 9 -31 -18 -22 -32 6 -10 11 -10 21 3 15 18 30 20 30 3
0 -19 -104 -108 -111 -96 -4 6 -17 -20 -29 -56 -12 -37 -20 -70 -17 -72 3 -3
8 9 12 27 4 18 21 45 38 61 28 25 39 28 99 28 39 0 68 4 68 10 0 6 -5 10 -11
10 -5 0 -7 4 -4 10 3 5 -8 36 -25 67 -35 66 -69 113 -71 98z m88 -159 c-6 -18
-53 -15 -53 3 0 13 7 16 29 13 15 -3 26 -9 24 -16z"/>
<path d="M533 1953 c-7 -3 -13 -9 -13 -15 0 -5 6 -8 13 -5 6 2 43 -25 82 -60
80 -74 125 -108 125 -95 0 5 -17 22 -37 38 -21 15 -40 30 -43 33 -51 53 -118
108 -127 104z"/>
<path d="M302 1898 c-18 -18 -15 -37 6 -33 9 2 22 4 27 5 6 1 1 5 -10 10 -11
5 -14 9 -7 9 6 1 12 6 12 11 0 14 -13 13 -28 -2z"/>
<path d="M237 1808 c-14 -51 -29 -120 -32 -153 -6 -59 -6 -59 9 -28 8 18 13
44 10 57 -2 14 1 28 6 31 6 4 8 15 5 25 -3 10 1 36 10 57 16 36 29 103 21 103
-2 0 -15 -42 -29 -92z"/>
<path d="M428 1822 c-4 -15 -1 -18 18 -14 13 2 24 11 24 18 0 21 -37 17 -42
-4z"/>
<path d="M1430 1833 c0 -17 61 -127 81 -146 11 -10 26 -29 35 -42 9 -14 21
-22 27 -18 6 4 3 11 -7 19 -11 8 -15 18 -10 26 4 7 3 10 -1 5 -5 -4 -31 28
-58 70 -56 87 -67 102 -67 86z"/>
<path d="M2536 1795 c-11 -19 -22 -33 -26 -30 -4 2 -7 -2 -7 -10 0 -21 46 15
53 43 10 36 0 35 -20 -3z"/>
<path d="M1761 1759 c-11 -34 -19 -64 -17 -66 2 -2 13 24 25 58 11 34 19 64
17 66 -2 2 -13 -24 -25 -58z"/>
<path d="M267 1803 c-10 -10 -8 -51 2 -58 5 -3 12 -1 16 5 3 5 1 10 -4 10 -6
0 -11 7 -11 15 0 8 7 15 16 15 8 0 12 5 9 10 -7 12 -19 13 -28 3z"/>
<path d="M1222 1763 c-28 -41 -70 -162 -93 -271 -12 -52 -29 -112 -40 -131
-14 -25 -16 -37 -7 -40 18 -6 56 45 66 87 19 81 73 290 86 335 8 26 13 47 11
47 -2 0 -12 -12 -23 -27z"/>
<path d="M1282 1743 c-11 -21 -23 -53 -27 -72 -4 -21 -10 -29 -15 -21 -5 8
-10 3 -14 -15 -4 -15 -5 -30 -1 -33 3 -3 5 3 5 13 0 10 2 16 5 13 3 -3 -5 -46
-17 -96 -14 -60 -25 -87 -31 -79 -5 8 -7 2 -4 -15 2 -16 0 -25 -6 -21 -5 3 -6
-3 -2 -17 5 -16 4 -20 -4 -16 -6 4 -11 4 -9 -1 4 -18 -39 -74 -69 -88 -98 -47
-199 17 -269 170 -21 45 -29 82 -34 150 -4 62 -8 83 -13 68 -11 -32 10 -200
33 -263 49 -134 189 -229 300 -205 53 12 131 94 130 137 -1 7 -7 -2 -15 -20
-8 -19 -24 -36 -35 -39 -11 -3 -18 -9 -15 -13 3 -5 -7 -18 -21 -29 -32 -25
-120 -29 -150 -6 -18 13 -15 14 28 15 77 0 110 23 156 104 22 39 43 88 47 110
11 62 38 96 48 59 3 -13 5 -11 7 7 5 53 8 66 24 102 9 21 16 47 16 58 0 11 5
20 11 20 7 0 9 -10 5 -24 -3 -14 -1 -28 4 -31 14 -9 54 -90 128 -257 68 -154
145 -283 150 -255 2 10 -2 25 -10 34 -11 15 -11 16 4 10 13 -5 1 26 -41 111
-33 64 -87 181 -122 260 -74 172 -95 206 -131 210 -22 3 -30 -3 -46 -35z"/>
<path d="M2160 1778 c0 -4 7 -35 17 -70 34 -131 15 -305 -47 -430 -51 -103
-205 -285 -233 -275 -29 9 -50 58 -53 123 l-4 67 25 -23 c26 -24 35 -72 13
-68 -7 2 -13 -4 -13 -12 0 -8 7 -15 16 -15 9 0 25 -7 35 -15 19 -14 19 -14 0
7 -10 13 -22 20 -27 18 -4 -3 -10 -2 -13 3 -9 15 28 10 47 -6 13 -12 20 -13
29 -4 9 9 8 20 -4 44 -13 26 -17 29 -17 12 -1 -11 4 -25 11 -32 6 -6 9 -14 6
-18 -12 -11 -48 36 -48 62 0 14 4 23 9 19 5 -3 12 -1 15 4 3 4 -4 8 -17 7 -12
0 -22 4 -22 11 0 6 -4 15 -9 20 -5 5 -6 3 -2 -4 4 -7 2 -13 -3 -13 -6 0 -11 5
-11 11 0 5 -4 8 -9 5 -9 -6 -20 45 -22 104 -1 21 -5 7 -10 -35 -11 -87 -3
-166 23 -228 40 -92 76 -88 180 21 110 115 175 242 197 382 12 74 13 210 2
170 -7 -24 -8 -24 -12 7 -3 18 -1 37 5 43 5 5 6 13 2 17 -4 4 -12 1 -17 -7 -9
-12 -10 -10 -6 7 3 13 -4 39 -14 60 -10 20 -19 34 -19 31z"/>
<path d="M2002 1741 c2 -8 -7 -20 -20 -26 -37 -20 -39 -28 -5 -22 18 4 32 3
30 -1 -1 -4 3 -8 8 -9 6 -2 10 3 10 10 1 6 6 11 11 10 6 -1 11 5 11 13 0 8 -3
12 -5 9 -3 -3 -14 3 -24 12 -14 13 -19 14 -16 4z"/>
<path d="M853 1716 c-30 -14 -38 -59 -24 -127 11 -51 30 -96 31 -74 1 6 7 -3
15 -20 l15 -30 -5 30 c-5 26 0 34 32 60 35 27 47 31 133 36 l95 5 -92 2 c-83
2 -143 -10 -143 -27 0 -4 -13 -15 -29 -24 l-30 -18 -7 36 c-4 22 -2 41 6 50 7
8 9 15 4 15 -5 0 0 8 11 16 14 11 16 18 8 21 -18 7 -16 23 2 23 8 0 15 6 15
13 0 9 2 9 9 -1 4 -8 11 -13 15 -13 28 4 56 -1 51 -8 -3 -6 34 -9 94 -9 95 2
100 3 111 26 9 21 8 24 -5 18 -9 -3 -26 -6 -36 -6 -11 0 -18 -3 -16 -7 13 -21
-142 -7 -223 20 -8 2 -25 -1 -37 -7z"/>
<path d="M2530 1716 c0 -5 -28 -34 -61 -65 -34 -30 -57 -57 -52 -58 5 -2 35
21 66 52 30 30 64 55 75 55 11 0 24 6 31 13 8 11 4 13 -24 13 -19 -1 -35 -5
-35 -10z"/>
<path d="M2134 1673 c-9 -15 -14 -16 -27 -4 -14 11 -21 9 -49 -10 -18 -13 -43
-22 -56 -20 -15 2 -22 -1 -18 -8 8 -13 126 -11 126 2 0 5 14 7 31 3 28 -5 30
-4 27 21 -4 32 -19 39 -34 16z"/>
<path d="M1701 1584 c-26 -83 -32 -120 -17 -103 7 9 56 192 52 196 -2 3 -18
-39 -35 -93z"/>
<path d="M1068 1653 c18 -2 45 -2 60 0 15 2 0 4 -33 4 -33 0 -45 -2 -27 -4z"/>
<path d="M1681 1636 c-6 -8 -10 -20 -9 -27 2 -7 -8 -16 -22 -20 -14 -4 -19 -7
-11 -8 8 -1 11 -7 7 -17 -3 -8 -1 -25 6 -37 l11 -21 9 24 c6 16 5 26 -4 32
-11 6 -10 8 0 8 7 0 10 5 7 10 -3 6 -2 10 3 10 6 0 15 14 21 30 10 32 2 40
-18 16z"/>
<path d="M906 1622 c-7 -7 -22 -14 -34 -15 -14 -1 -22 -8 -22 -19 0 -25 10
-23 44 10 28 26 31 27 134 24 58 -2 108 0 113 5 4 4 -44 8 -107 8 -81 0 -118
-4 -128 -13z"/>
<path d="M1311 1553 c-11 -49 -21 -96 -21 -106 0 -9 -4 -25 -9 -35 -5 -9 -19
-45 -31 -79 -12 -34 -35 -74 -51 -90 -15 -15 -29 -34 -29 -40 0 -14 -20 -18
-20 -5 0 4 -35 7 -77 7 -63 0 -85 4 -116 23 -21 12 -43 19 -49 16 -6 -4 -8 -2
-5 3 4 6 0 16 -8 23 -27 22 -18 -18 10 -46 17 -17 32 -23 45 -19 24 7 26 -3 5
-19 -9 -7 -11 -16 -7 -24 7 -9 13 -7 28 9 10 13 13 19 5 14 -8 -5 -12 -4 -8 2
3 5 22 7 42 5 l37 -4 -37 -30 c-20 -17 -34 -33 -31 -35 3 -3 19 6 36 21 18 15
44 26 60 26 16 0 30 5 32 12 3 8 12 9 36 0 18 -6 30 -7 27 -2 -3 6 7 15 22 22
15 6 43 25 61 42 29 27 32 36 32 86 0 64 19 170 30 170 4 0 10 -7 14 -15 3 -8
1 -15 -3 -15 -5 0 -11 -46 -13 -101 l-3 -101 -45 -40 c-25 -22 -45 -45 -45
-51 0 -6 -6 -12 -12 -14 -7 -3 -13 0 -13 7 0 6 -5 8 -10 5 -6 -4 -36 -8 -67
-10 -35 -2 -61 -9 -69 -19 -8 -9 -9 -11 -2 -6 7 6 46 9 88 8 l75 -1 -71 -6
c-48 -4 -78 -12 -91 -23 -22 -20 -38 -24 -27 -6 4 7 3 8 -4 4 -9 -5 -9 -12 0
-26 12 -18 13 -18 40 1 15 11 30 24 33 29 3 6 30 9 60 9 51 -2 57 1 113 50
l60 52 4 91 c4 88 5 92 38 121 24 22 35 26 38 17 3 -8 0 -16 -7 -18 -6 -2 -8
-8 -5 -14 4 -6 1 -9 -7 -6 -29 10 -38 -19 -41 -128 -2 -75 -7 -109 -16 -112
-8 -2 -10 2 -5 15 5 13 0 11 -18 -7 -13 -14 -37 -39 -54 -55 -16 -16 -20 -21
-7 -10 28 23 39 15 12 -10 -15 -14 -34 -18 -78 -16 -43 1 -62 -2 -72 -13 -7
-9 -16 -13 -21 -10 -5 3 -8 0 -7 -8 2 -7 -3 -12 -10 -10 -8 1 -11 -2 -7 -8 7
-11 19 -6 45 16 16 13 154 24 151 12 0 -5 -1 -12 -1 -18 0 -6 -30 -10 -69 -10
-54 0 -71 -4 -82 -17 -11 -15 -11 -16 1 -5 17 14 50 16 50 2 0 -5 -7 -10 -16
-10 -27 0 -10 -20 34 -40 35 -16 42 -16 42 -5 0 8 -5 15 -11 15 -6 0 -9 6 -6
13 2 6 10 12 18 12 8 0 24 12 37 27 33 38 122 112 128 105 8 -8 -16 -48 -25
-43 -5 3 -16 -3 -26 -14 -10 -11 -14 -20 -10 -20 5 0 -1 -10 -12 -22 -15 -18
-19 -33 -15 -70 3 -32 9 -48 18 -48 16 0 18 9 5 29 -6 9 -5 21 2 33 17 26 27
22 26 -9 0 -16 -3 -22 -6 -15 -2 6 -9 12 -14 12 -5 0 -4 -10 3 -22 7 -13 11
-27 10 -31 -1 -5 2 -6 8 -2 11 7 14 125 3 125 -4 0 -17 -10 -30 -22 -13 -12
-23 -17 -23 -12 0 5 25 29 55 54 l54 45 0 118 c1 115 3 123 34 118 5 -1 6 3 3
8 -4 5 -2 12 4 16 9 6 14 -7 11 -27 0 -5 4 -8 11 -8 6 0 4 -7 -5 -18 -15 -16
-17 -45 -15 -223 l2 -204 6 210 c3 116 7 212 8 215 1 2 8 -2 15 -9 10 -11 10
-14 0 -18 -10 -3 -13 -38 -13 -126 l0 -122 33 -37 c18 -21 42 -38 54 -38 11 0
26 -7 33 -15 10 -12 7 -15 -14 -21 -21 -5 -23 -8 -12 -19 12 -13 33 -12 75 1
10 3 -12 32 -67 87 l-82 82 0 97 c0 53 4 99 9 103 6 3 -4 37 -21 76 -26 57
-35 69 -50 65 -12 -3 -18 0 -15 7 3 7 9 11 15 10 10 -2 -11 49 -71 175 -5 12
-13 22 -17 22 -4 0 -17 -39 -29 -87z m64 -3 c-3 -5 -1 -10 4 -10 6 0 11 -5 11
-11 0 -5 -4 -7 -10 -4 -5 3 -10 1 -10 -5 0 -6 7 -13 16 -17 12 -4 13 -8 3 -14
-8 -4 -17 -2 -24 7 -8 12 -10 8 -10 -17 0 -20 -6 -34 -15 -37 -13 -4 -13 -3
-2 10 14 17 6 72 -9 62 -5 -3 -9 2 -9 10 0 9 6 16 13 16 8 0 7 4 -3 10 -11 7
-7 10 18 10 20 0 31 -4 27 -10z m61 -147 c-1 -7 -12 -23 -24 -35 -17 -19 -22
-38 -25 -108 l-3 -85 -1 98 c0 54 -3 101 -7 104 -10 10 21 39 42 39 11 0 19
-6 18 -13z m-76 -221 c-5 -2 -10 -13 -10 -24 0 -14 -5 -18 -16 -14 -8 3 -13 2
-10 -2 7 -12 -6 -26 -39 -41 -29 -13 -29 -12 -11 8 10 11 15 24 12 29 -3 5 4
18 16 28 12 11 18 13 14 7 -10 -18 4 -16 26 4 15 13 18 33 20 107 l2 91 3 -95
c3 -60 0 -96 -7 -98z m177 -157 c3 -9 3 -19 -1 -22 -7 -7 -36 16 -36 28 0 15
30 10 37 -6z"/>
<path d="M1915 1598 c0 -42 20 -51 49 -23 8 8 30 15 50 15 51 0 53 17 2 21
-24 2 -42 1 -39 -3 6 -11 -9 -10 -27 2 -13 9 -13 11 0 20 12 8 10 9 -10 8 -22
-2 -25 -7 -25 -40z"/>
<path d="M1460 1626 c0 -17 63 -146 72 -146 5 0 4 9 -2 20 -6 11 -7 20 -3 20
4 0 3 4 -3 8 -6 4 -23 30 -37 57 -14 28 -26 46 -27 41z"/>
<path d="M1576 1612 c-4 -7 -2 -12 4 -12 6 0 8 -4 5 -10 -3 -5 2 -24 11 -41 9
-18 18 -62 21 -98 2 -36 9 -72 15 -78 6 -7 8 -19 5 -26 -3 -7 1 -21 8 -30 11
-15 12 -12 10 25 -2 24 -6 61 -9 83 -3 22 -8 54 -9 70 -5 41 -52 131 -61 117z"/>
<path d="M2141 1598 c-16 -16 -25 -19 -28 -10 -6 17 -33 15 -53 -3 -10 -9 -48
-22 -86 -29 l-69 -14 76 -1 c57 -1 80 3 89 14 8 9 30 15 56 15 40 0 44 2 44
25 0 30 0 30 -29 3z"/>
<path d="M1045 1572 c-44 -2 -84 -8 -90 -14 -7 -7 -1 -9 20 -4 28 6 26 3 -27
-46 -43 -40 -53 -54 -39 -54 11 0 19 4 18 9 -1 5 5 12 13 14 13 4 13 3 0 -7
-13 -10 -12 -11 3 -6 10 3 22 6 25 6 4 0 2 4 -5 8 -8 5 0 19 23 44 l34 38 0
-36 c0 -29 -3 -34 -13 -25 -8 6 -17 8 -20 4 -13 -13 -7 -20 17 -20 21 0 25 5
28 36 3 36 3 36 45 33 23 -2 44 2 48 8 10 15 10 15 -80 12z"/>
<path d="M2343 1567 c-24 -5 -43 -14 -43 -18 0 -5 12 -4 26 1 14 6 36 10 50
10 13 0 24 5 24 10 0 11 0 11 -57 -3z"/>
<path d="M1096 1525 c4 -9 0 -15 -10 -15 -23 0 -20 -25 4 -27 11 -1 20 4 20
12 0 7 3 20 6 29 4 10 1 16 -10 16 -10 0 -13 -6 -10 -15z"/>
<path d="M1846 1461 c-11 -52 -15 -92 -10 -118 7 -35 8 -36 15 -13 4 14 7 34
7 45 0 16 -2 15 -9 -5 -7 -22 -8 -20 -5 10 2 19 9 61 15 93 7 33 10 61 8 63
-2 2 -12 -31 -21 -75z"/>
<path d="M1980 1530 l-85 -6 82 -2 c46 -1 85 2 88 8 3 6 5 9 3 8 -2 -1 -41 -5
-88 -8z"/>
<path d="M2078 1523 c-7 -8 -38 -14 -87 -15 l-76 -2 80 -5 c56 -4 85 -2 96 7
8 6 32 12 53 12 23 0 35 4 31 10 -9 15 -83 9 -97 -7z"/>
<path d="M1871 1469 c-7 -33 -10 -63 -8 -65 2 -3 10 23 16 57 7 33 10 63 8 65
-2 3 -10 -23 -16 -57z"/>
<path d="M2591 1503 c0 -7 -8 -13 -17 -13 -14 0 -14 -3 -3 -16 13 -16 55 -12
74 7 7 7 1 8 -17 4 -20 -5 -27 -3 -31 12 -3 10 -5 12 -6 6z"/>
<path d="M1901 1486 c11 -9 180 -15 174 -6 -3 5 -45 10 -92 10 -48 0 -84 -2
-82 -4z"/>
<path d="M2110 1465 c-10 -12 -36 -15 -115 -15 -86 0 -102 -2 -102 -16 0 -12
6 -14 26 -9 80 21 192 12 176 -15 -8 -12 -57 -9 -67 4 -3 5 -20 11 -37 12
l-32 4 18 -25 c12 -16 24 -22 36 -19 10 3 34 -2 53 -11 27 -12 35 -22 32 -38
-1 -12 1 -28 6 -35 14 -23 -96 -4 -119 21 -17 19 -28 21 -70 17 -35 -4 -45 -7
-32 -12 10 -5 28 -6 40 -3 17 5 36 -8 83 -54 34 -33 64 -58 68 -54 13 13 5 30
-19 43 -14 7 -25 17 -25 22 0 14 30 9 36 -7 4 -8 13 -15 22 -15 8 0 12 3 9 7
-4 3 0 11 8 17 12 9 65 161 65 188 0 14 -47 9 -60 -7z"/>
<path d="M958 1456 c-21 -7 -40 -11 -43 -8 -3 3 -5 -3 -5 -12 0 -10 9 -20 20
-23 11 -3 18 -9 15 -13 -3 -4 2 -13 10 -20 13 -11 20 -9 40 10 14 13 25 29 25
37 0 7 5 13 11 13 5 0 8 -4 5 -9 -3 -4 6 -6 19 -3 15 2 25 0 25 -7 0 -6 -9
-11 -20 -11 -11 0 -20 -5 -20 -11 0 -5 6 -7 13 -3 8 6 8 3 -1 -9 -8 -9 -23
-15 -34 -14 -12 1 -23 -4 -25 -10 -7 -18 33 -16 62 3 22 14 45 60 45 90 0 8
-10 14 -22 14 -27 0 -91 -48 -82 -62 4 -5 -4 -4 -17 3 -13 7 -27 12 -31 11 -5
-1 -8 3 -8 8 0 6 6 10 13 10 7 0 22 7 33 15 23 18 19 18 -28 1z"/>
<path d="M2633 1460 c-13 -5 -23 -15 -23 -21 0 -7 -3 -10 -6 -6 -6 5 -34 -16
-34 -25 0 -3 14 -4 30 -4 17 0 30 5 30 12 0 7 12 22 26 33 27 22 16 27 -23 11z"/>
<path d="M2654 1428 c-5 -13 -8 -27 -9 -33 0 -5 -12 -9 -27 -7 -19 2 -30 -4
-38 -19 -7 -11 -10 -22 -8 -24 5 -5 31 -8 53 -5 16 1 15 3 -7 12 -39 14 -35
29 4 17 18 -5 34 -9 35 -9 2 0 3 -7 3 -15 0 -8 -6 -15 -13 -15 -8 0 -22 -9
-33 -21 -10 -11 -26 -18 -36 -16 -25 7 -42 -17 -24 -32 9 -7 17 -8 20 -2 3 5
0 12 -6 14 -7 3 -2 6 12 6 15 1 31 -4 38 -11 9 -9 12 -8 12 4 0 9 -6 18 -12
21 -7 2 -1 8 14 12 32 8 40 25 32 70 -3 22 -1 35 5 35 13 0 14 27 2 35 -5 3
-13 -5 -17 -17z"/>
<path d="M220 1427 c0 -8 8 -22 19 -31 17 -16 19 -16 24 5 3 13 4 26 1 31 -8
13 -44 9 -44 -5z"/>
<path d="M1936 1401 c-4 -6 -13 -8 -21 -5 -8 3 -19 3 -25 -1 -16 -10 36 -35
72 -35 29 0 30 1 16 22 -17 26 -34 33 -42 19z"/>
<path d="M790 1359 c0 -6 21 -51 46 -99 97 -189 276 -332 484 -387 133 -35
379 -15 468 37 l32 20 78 -38 c93 -46 115 -54 108 -43 -3 5 -20 14 -38 22 -18
7 -36 18 -40 23 -4 6 -13 11 -20 11 -7 0 -15 5 -18 10 -2 6 -25 36 -51 69 -26
32 -58 84 -70 115 -31 78 -40 85 -35 26 2 -27 9 -51 16 -53 7 -3 18 -12 25
-21 7 -9 34 -42 59 -73 26 -32 42 -58 37 -58 -5 0 -41 32 -80 70 -40 39 -75
70 -78 70 -4 0 -16 8 -27 18 -43 36 6 -21 63 -74 36 -33 52 -54 47 -63 -5 -7
-14 -10 -22 -7 -8 3 -14 1 -14 -5 0 -6 -4 -7 -10 -4 -5 3 -28 -4 -50 -15 -35
-18 -59 -21 -168 -21 -141 0 -192 3 -192 11 0 3 -8 6 -17 7 -10 0 -34 6 -53
13 -212 78 -342 194 -444 398 -26 51 -36 63 -36 41z"/>
<path d="M2043 1353 c4 -6 -4 -8 -20 -5 -20 4 -24 2 -18 -8 6 -10 4 -12 -9 -7
-10 4 -15 3 -11 -3 3 -6 24 -10 46 -10 32 0 40 3 37 17 -2 9 -9 18 -17 21 -8
3 -11 0 -8 -5z"/>
<path d="M1428 1221 l-4 -108 -35 -31 c-19 -17 -28 -32 -21 -32 9 0 11 -10 7
-37 -5 -28 -4 -34 4 -23 6 8 11 32 11 52 0 20 4 39 9 43 6 3 8 -9 4 -29 -4
-26 0 -39 16 -55 l21 -21 0 25 c0 14 -5 24 -11 22 -6 -1 -14 4 -16 11 -3 6 2
12 11 12 19 0 21 16 4 23 -10 4 -10 7 -1 14 12 9 24 243 12 243 -4 0 -8 -49
-11 -109z"/>
<path d="M1860 1290 c0 -5 18 -10 41 -10 35 0 48 -7 96 -52 31 -29 54 -48 52
-43 -2 6 -29 34 -60 63 -46 43 -62 52 -92 52 -21 0 -37 -4 -37 -10z"/>
<path d="M2666 1264 c-4 -19 -9 -43 -12 -52 -4 -12 -1 -11 7 3 12 19 24 85 15
85 -2 0 -7 -16 -10 -36z"/>
<path d="M1883 1254 c-7 -3 5 -20 30 -42 23 -20 51 -48 63 -62 12 -14 26 -22
30 -17 4 4 -9 24 -29 45 -34 35 -49 61 -28 48 11 -7 8 21 -4 31 -4 4 -5 3 -1
-4 10 -19 -16 -28 -29 -10 -13 18 -13 18 -32 11z"/>
<path d="M2578 1239 c-22 -23 -23 -39 -3 -39 8 0 15 9 15 20 0 17 5 19 25 14
27 -7 35 10 9 20 -22 8 -27 7 -46 -15z"/>
<path d="M1530 1235 c1 -5 7 -19 15 -29 19 -25 19 -37 0 -30 -8 4 -13 10 -10
14 3 4 -2 11 -11 14 -23 9 -31 7 -15 -3 10 -6 11 -13 2 -29 -18 -34 -13 -60
17 -79 15 -9 39 -28 55 -42 15 -13 27 -19 27 -13 0 7 -5 12 -10 12 -5 0 -9 3
-9 8 4 22 -3 33 -18 30 -10 -2 -17 3 -15 10 1 6 -7 12 -19 12 -15 0 -20 5 -17
22 2 13 11 24 20 26 14 3 16 -1 12 -15 -6 -16 -5 -16 10 2 17 20 17 20 12 0
-7 -26 48 -95 64 -79 7 7 1 19 -20 39 -16 16 -30 34 -30 39 0 6 -14 31 -30 56
-16 25 -30 41 -30 35z"/>
<path d="M2603 1218 c4 -11 0 -21 -11 -27 -9 -5 -14 -12 -10 -16 3 -4 15 -2
25 4 10 6 14 11 8 11 -5 0 -4 4 3 9 10 6 9 11 -4 22 -16 12 -17 12 -11 -3z"/>
<path d="M2498 1160 c-29 -40 -35 -71 -7 -42 10 12 19 25 19 30 0 5 10 17 23
25 18 13 19 16 5 16 -10 1 -27 -13 -40 -29z"/>
<path d="M2560 1161 c0 -5 -10 -11 -22 -15 -19 -5 -20 -8 -8 -15 9 -7 19 -6
27 1 8 6 16 8 20 4 4 -3 -2 -13 -13 -21 -11 -8 -14 -15 -6 -15 6 0 12 -4 12
-9 0 -10 -39 -9 -55 1 -6 3 -21 1 -35 -4 -20 -7 -22 -11 -10 -18 8 -6 27 -8
41 -5 18 4 26 2 26 -8 0 -8 -12 -14 -31 -14 -36 -2 -66 -5 -66 -9 0 -1 7 -15
16 -30 13 -24 15 -25 11 -6 -6 26 21 46 44 31 11 -7 10 -9 -6 -9 -17 0 -17 -2
-5 -10 13 -8 12 -10 -2 -10 -10 0 -17 -3 -16 -7 1 -5 -2 -19 -6 -32 -6 -16 -4
-26 5 -32 11 -7 10 -9 -3 -9 -10 0 -18 -4 -18 -10 0 -5 -5 -10 -11 -10 -7 0
-8 7 -4 18 4 9 10 26 13 37 5 19 5 19 -11 3 -9 -9 -17 -26 -17 -37 0 -14 -5
-19 -15 -15 -8 4 -17 -1 -21 -10 -3 -9 -9 -14 -13 -12 -3 2 -15 -2 -26 -10
-19 -14 -18 -15 12 -12 17 1 29 6 27 10 -3 4 -1 8 4 8 5 0 12 -10 15 -22 6
-20 9 -19 46 22 22 24 38 47 35 51 -2 4 2 13 9 21 23 23 78 133 87 173 1 6 6
18 12 28 9 17 7 17 -12 7 -15 -8 -20 -8 -16 -1 4 6 2 11 -3 11 -6 0 -11 -4
-11 -9z"/>
<path d="M330 1056 c0 -32 11 -38 30 -18 13 14 12 15 -3 9 -11 -4 -17 -1 -17
9 0 11 6 14 23 9 17 -5 19 -4 7 4 -25 18 -40 12 -40 -13z"/>
<path d="M1977 985 c-32 -30 -44 -46 -35 -51 7 -4 14 -1 16 7 3 8 23 31 45 52
22 20 36 37 31 37 -5 -1 -30 -21 -57 -45z"/>
<path d="M1255 1000 c-14 -16 -16 -23 -7 -32 7 -7 12 -8 12 -2 0 5 5 2 10 -6
7 -11 10 -5 10 23 0 20 -2 37 -3 37 -2 0 -12 -9 -22 -20z"/>
<path d="M1470 978 c0 -45 23 -78 55 -78 17 0 19 9 5 30 -8 12 -10 12 -10 1 0
-11 -3 -11 -15 -1 -19 16 -1 32 24 22 14 -5 14 -4 1 12 -8 11 -16 14 -18 7 -7
-20 -22 -11 -22 13 0 14 -4 28 -10 31 -6 4 -10 -11 -10 -37z"/>
<path d="M1713 1000 c17 -14 23 -26 20 -40 -3 -12 0 -20 7 -20 7 0 10 7 7 14
-4 11 -1 13 11 10 9 -3 1 8 -18 25 -19 17 -38 31 -43 31 -6 0 2 -9 16 -20z"/>
<path d="M1630 1001 c0 -4 12 -18 27 -32 21 -19 25 -20 20 -6 -4 10 -7 22 -7
27 0 4 -9 10 -20 13 -11 3 -20 2 -20 -2z"/>
<path d="M1386 965 c-3 -8 0 -15 6 -15 6 0 3 -9 -7 -20 -18 -19 -17 -20 6 -20
20 0 24 5 26 35 3 36 -19 51 -31 20z"/>
<path d="M2358 936 c-18 -6 -28 -18 -30 -35 -2 -15 -9 -25 -16 -23 -8 1 -11
-2 -7 -8 8 -13 -8 -13 -22 1 -8 8 -13 7 -18 -3 -5 -7 -5 -10 0 -6 4 4 13 1 20
-8 10 -14 15 -13 41 14 16 16 28 35 26 42 -3 9 1 11 12 7 10 -4 16 -1 16 8 0
9 6 12 15 9 8 -4 15 -4 15 -1 0 11 -27 13 -52 3z"/>
<path d="M2247 843 c-2 -5 -3 -15 -3 -23 1 -19 48 -20 54 -2 2 7 -2 13 -9 11
-27 -3 -40 1 -34 11 3 6 4 10 1 10 -3 0 -7 -3 -9 -7z"/>
<path d="M2324 826 c-28 -23 -28 -23 -7 -35 16 -8 24 -8 29 1 4 7 3 8 -4 4 -8
-5 -10 -1 -5 9 3 9 9 12 12 7 3 -5 17 -8 31 -7 27 2 39 28 19 41 -7 4 -9 3 -6
-3 4 -6 0 -14 -9 -17 -12 -4 -15 -2 -10 9 8 23 -19 18 -50 -9z"/>
<path d="M2215 809 c-4 -5 1 -19 10 -29 14 -15 14 -22 4 -38 -7 -12 -19 -18
-27 -14 -10 3 -13 1 -8 -6 12 -21 33 -13 54 19 11 17 22 27 25 22 9 -14 -31
-73 -49 -73 -14 0 -15 -2 -3 -17 13 -16 12 -17 -3 -4 -10 7 -15 17 -12 23 3 5
-5 6 -20 2 -21 -5 -26 -3 -26 12 0 15 -2 16 -9 5 -5 -7 -6 -22 -4 -32 4 -15 0
-19 -21 -19 -16 0 -26 -5 -26 -15 0 -9 9 -15 25 -15 18 0 26 7 31 25 3 14 10
25 15 25 12 0 11 -7 -1 -31 -13 -24 -1 -25 43 -3 51 27 79 51 65 57 -7 3 -4 6
7 6 11 1 26 5 34 10 13 8 13 12 0 27 -13 16 -12 17 8 12 15 -4 28 1 40 15 16
19 16 20 1 8 -17 -13 -34 -12 -121 5 -19 4 -27 11 -23 20 6 16 0 19 -9 3z"/>
<path d="M560 720 c0 -19 44 -40 57 -26 4 3 -1 6 -10 6 -20 0 -22 11 -5 28 9
9 6 12 -15 12 -20 0 -27 -5 -27 -20z"/>
<path d="M637 673 c-4 -3 -7 -18 -7 -31 0 -14 3 -22 7 -18 4 4 8 15 8 24 0 9
6 16 13 15 6 -2 12 2 12 7 0 11 -23 14 -33 3z"/>
<path d="M1610 651 c0 -14 5 -18 20 -14 11 3 20 12 20 19 0 8 -9 14 -20 14
-13 0 -20 -7 -20 -19z"/>
<path d="M897 633 c-10 -3 -16 -10 -14 -16 2 -7 -2 -20 -10 -29 -12 -13 -12
-16 -1 -14 7 1 19 5 25 9 9 6 11 3 6 -10 -5 -14 0 -13 23 7 48 41 50 43 27 31
-23 -12 -40 0 -28 19 6 10 2 11 -28 3z"/>
<path d="M2112 608 c-6 -6 -12 -21 -12 -32 0 -20 1 -19 16 2 8 12 22 21 29 20
8 -2 15 2 17 7 5 15 -35 18 -50 3z"/>
<path d="M981 553 c-6 -11 -11 -13 -11 -5 0 7 -4 11 -10 7 -5 -3 -7 -12 -3
-21 3 -8 8 -12 11 -10 3 3 11 1 17 -4 8 -7 20 -7 36 0 24 10 23 10 -3 7 -16
-3 -28 0 -28 4 0 5 22 9 49 9 34 0 51 4 55 15 7 18 -4 19 -39 3 -19 -9 -28 -9
-37 0 -16 16 -25 15 -37 -5z"/>
<path d="M1793 533 c9 -14 -1 -43 -15 -43 -5 0 -24 -14 -41 -32 -31 -31 -31
-31 -7 -25 14 4 29 7 33 7 5 0 5 5 1 12 -5 8 -2 9 9 5 10 -3 17 -2 17 3 0 4
12 23 28 41 15 18 21 30 14 25 -7 -4 -20 -2 -29 6 -10 7 -14 8 -10 1z"/>
<path d="M1236 515 c-13 -10 -23 -12 -30 -5 -5 5 -15 10 -20 10 -6 0 -4 -5 4
-10 13 -9 13 -11 1 -19 -9 -6 -22 -6 -32 0 -25 13 -46 11 -52 -5 -4 -9 3 -13
21 -14 49 -2 61 -5 66 -19 5 -11 10 -10 28 6 12 12 27 21 32 21 6 0 4 5 -4 10
-13 8 -12 11 5 24 11 9 16 15 10 15 -5 0 -19 -6 -29 -14z"/>
<path d="M1035 510 c-20 -9 -20 -9 0 -9 11 -1 31 -4 45 -7 18 -4 21 -3 11 4
-11 8 -11 10 0 15 8 3 3 5 -11 6 -14 0 -34 -4 -45 -9z"/>
<path d="M2097 500 c-16 -19 -16 -20 3 -20 10 0 22 5 26 12 5 7 2 9 -7 4 -8
-4 -5 0 5 8 15 12 16 16 5 16 -8 0 -22 -9 -32 -20z"/>
<path d="M867 504 c-4 -4 -7 -14 -7 -23 1 -14 2 -13 11 2 5 9 15 17 21 17 7 0
6 -6 -2 -15 -11 -13 -10 -14 4 -9 9 4 15 12 13 18 -4 13 -30 20 -40 10z"/>
<path d="M1595 475 c-11 -14 -25 -25 -32 -25 -7 0 -17 -8 -22 -18 -8 -16 -6
-17 25 -14 33 4 39 11 34 41 -1 9 5 12 20 8 16 -4 20 -1 18 10 -5 25 -21 24
-43 -2z"/>
<path d="M1554 479 c-3 -6 -18 -8 -33 -5 -20 5 -22 4 -11 -4 11 -7 12 -12 3
-18 -8 -5 -9 -12 -2 -22 7 -12 10 -11 15 8 4 12 12 22 19 22 7 0 15 7 19 15 6
17 0 20 -10 4z"/>
<path d="M1695 481 c-23 -5 -31 -12 -33 -34 -4 -34 10 -34 43 0 20 23 34 47
23 42 -2 -1 -16 -4 -33 -8z"/>
<path d="M1248 462 c-9 -2 -18 -9 -21 -16 -4 -9 7 -12 41 -11 26 1 52 -2 58
-7 13 -9 42 -7 62 5 7 5 14 3 18 -6 5 -14 47 -17 60 -4 4 4 13 -1 20 -11 12
-16 13 -15 14 6 0 12 -5 22 -11 22 -6 0 -8 7 -5 16 4 11 1 14 -12 12 -9 -2
-16 -10 -14 -17 2 -8 -4 -10 -17 -6 -10 3 -32 7 -47 9 -16 3 -37 7 -47 11 -11
5 -25 1 -36 -9 -16 -14 -21 -15 -32 -4 -8 8 -21 12 -31 10z"/>
<path d="M1723 409 c-18 -5 -33 -12 -33 -15 0 -7 49 2 80 14 21 9 22 11 5 10
-11 0 -35 -4 -52 -9z"/>
<path d="M1485 390 c-91 -4 -117 -7 -75 -9 122 -6 240 -2 257 8 15 9 13 10
-12 9 -16 -1 -93 -5 -170 -8z"/>
<path d="M1216 382 c-12 -12 -5 -21 11 -15 11 4 14 3 9 -5 -5 -8 -2 -10 9 -6
9 4 14 11 12 17 -4 12 -33 18 -41 9z"/>
<path d="M1395 350 c3 -4 14 -10 25 -13 12 -3 18 -1 14 5 -4 6 2 8 16 3 15 -5
20 -4 16 4 -4 6 -22 10 -41 9 -19 -1 -32 -4 -30 -8z"/>
</g>
</svg>
