<svg viewBox="0 0 369.91304347826093 77.8428123414583" preserveAspectRatio="xMidYMid meet"
  xmlns="http://www.w3.org/2000/svg" width="300" height="150">
  <defs id="SvgjsDefs1086"></defs>
  <g id="SvgjsG1087" featurekey="Df7oLJ-0"
   transform="matrix(1.9509476031215165,0,0,1.9509476031215165,-9.754738015607582,-11.705685618729099)" fill="#111"><path xmlns="http://www.w3.org/2000/svg" d="M42.89,23.29l-1.89-.94V10c0-2.21-1.79-4-4-4H9c-2.21,0-4,1.79-4,4v24c0,2.21,1.79,4,4,4h8c.55,0,1-.45,1-1s-.45-1-1-1H9c-1.1,0-2-.9-2-2V10c0-1.1,.9-2,2-2h28c1.1,0,2,.9,2,2v4H11c-.55,0-1,.45-1,1s.45,1,1,1h28v5.35l-6.07-3.04c-.56-.28-1.22-.28-1.78,0l-10.04,5.02c-.68,.34-1.11,1.03-1.11,1.79v13.77c0,.76,.43,1.45,1.1,1.79l10,5.01c.57,.28,1.23,.28,1.8,0l10-5.01c.67-.34,1.1-1.03,1.1-1.79v-13.81c0-.76-.43-1.45-1.11-1.79Zm-11.89,20.11l-9-4.51v-12.87l9,4.51v12.87Zm1.05-14.59h0l-.04-.02h-.01l-8.66-4.34,8.71-4.35,6.96,3.48,1.71,.85,.04,.02-1.75,.88-6.95,3.48Zm9.95,10.08l-9,4.51v-12.87l6-3.01,3-1.5v12.87Z"></path><path xmlns="http://www.w3.org/2000/svg" d="M15,21h6c.55,0,1-.45,1-1s-.45-1-1-1h-6c-.55,0-1,.45-1,1s.45,1,1,1Z"></path><circle xmlns="http://www.w3.org/2000/svg" cx="11" cy="20" r="1"></circle><path xmlns="http://www.w3.org/2000/svg" d="M35,12c.55,0,1-.45,1-1s-.45-1-1-1h-12c-.55,0-1,.45-1,1s.45,1,1,1h12Z"></path><circle xmlns="http://www.w3.org/2000/svg" cx="11" cy="11" r="1"></circle><circle xmlns="http://www.w3.org/2000/svg" cx="15" cy="11" r="1"></circle><circle xmlns="http://www.w3.org/2000/svg" cx="19" cy="11" r="1"></circle><path xmlns="http://www.w3.org/2000/svg" d="M17,23h-2c-.55,0-1,.45-1,1s.45,1,1,1h2c.55,0,1-.45,1-1s-.45-1-1-1Z"></path><circle xmlns="http://www.w3.org/2000/svg" cx="11" cy="24" r="1"></circle><path xmlns="http://www.w3.org/2000/svg" d="M17,27h-2c-.55,0-1,.45-1,1s.45,1,1,1h2c.55,0,1-.45,1-1s-.45-1-1-1Z"></path><circle xmlns="http://www.w3.org/2000/svg" cx="11" cy="28" r="1"></circle><path xmlns="http://www.w3.org/2000/svg" d="M17,31h-2c-.55,0-1,.45-1,1s.45,1,1,1h2c.55,0,1-.45,1-1s-.45-1-1-1Z"></path><circle xmlns="http://www.w3.org/2000/svg" cx="11" cy="32" r="1"></circle></g><g id="SvgjsG1088" featurekey="Ua4uQk-0" transform="matrix(2.553253603607621,0,0,2.553253603607621,94.72337258945309,1.5485825582040622)" fill="#111"><path d="M15.44 9.56 l3.14 0 l-3.72 10.44 l-3.04 0 l-2.28 -6.5 l-2.28 6.5 l-3.04 0 l-3.72 -10.44 l3.14 0 l2.14 6.68 l2.38 -6.68 l2.76 0 l2.38 6.68 z M25.26 9.42 c2.36 0 5.48 1.78 5.48 5.42 c0 3.66 -3.12 5.36 -5.48 5.36 s-5.48 -1.7 -5.48 -5.36 c0 -3.64 3.12 -5.42 5.48 -5.42 z M25.26 12.2 c-1.2 0 -2.42 0.92 -2.42 2.64 c0 1.66 1.22 2.58 2.42 2.58 s2.44 -0.92 2.44 -2.58 c0 -1.72 -1.24 -2.64 -2.44 -2.64 z M39.14 9.44 c0.28 0 0.56 0 0.82 0.06 l0 3.02 c-0.24 -0.06 -0.52 -0.06 -0.72 -0.06 c-1.92 0 -3.46 1.38 -3.62 3.3 l0 4.24 l-3.16 0 l0 -10.4 l3.16 0 l0 2.54 c0.48 -1.56 1.68 -2.7 3.52 -2.7 z M48.78 20 l-3.38 -4.04 l-0.66 0.7 l0 3.34 l-3.16 0 l0 -3.78 l0 -10.36 l3.16 0 l0 6.94 l2.94 -3.2 l3.78 0 l-4.12 4.34 l5.04 6.06 l-3.6 0 z M65.14 20 l-0.98 -2.32 l-6.58 0 l-0.98 2.32 l-3.42 0 l6.22 -14 l2.94 0 l6.22 14 l-3.42 0 z M58.7 15.059999999999999 l4.36 0 l-2.18 -5.16 z M75.82000000000001 9.42 c2.38 0 5.12 1.78 5.12 5.36 c0 3.72 -2.74 5.42 -5.12 5.42 c-1.6 0 -2.54 -0.88 -2.68 -1.24 l0 4.84 l-3.16 0 l0 -6.02 l0 -8.18 l3.16 0 l0 0.96 c0.14 -0.22 1.08 -1.14 2.68 -1.14 z M75.36000000000001 17.42 c1.36 0 2.52 -0.92 2.52 -2.64 c0 -1.66 -1.16 -2.58 -2.52 -2.58 c-1.3 0 -2.36 0.9 -2.36 2.58 c0 1.74 1.06 2.64 2.36 2.64 z M85.82000000000002 5.859999999999999 l0 2.66 l-3.16 0 l0 -2.66 l3.16 0 z M85.82000000000002 9.6 l0 10.4 l-3.16 0 l0 -10.4 l3.16 0 z M92.72000000000001 8.26 c-0.9 0 -0.88 0.82 -0.88 1.02 l0 0.32 l2.16 0 l0 2.6 l-2.16 0 l0 7.8 l-3.18 0 l0 -7.8 l-1.42 0 l0 -2.6 l1.42 0 l0 -0.32 c0 -3.22 2.42 -3.62 3.68 -3.62 c1 0 1.98 0.22 2.72 0.7 l-1.06 2.18 c-0.58 -0.22 -0.8 -0.28 -1.28 -0.28 z M104.64000000000001 9.56 l3.14 0 l-6.36 14.24 l-3.16 0 l1.92 -4.16 l-4.5 -10.08 l3.14 0 l2.92 6.68 z"></path></g></svg>




