<svg xmlns="http://www.w3.org/2000/svg" width="202" height="133" viewBox="0 0 202 133" fill="none"><mask id="mask0_2088_78" style="mask-type:luminance" maskUnits="userSpaceOnUse" x="0" y="0" width="202" height="133"><path d="M0.5 132.5L0.5 0.5H201.5V132.5H0.5Z" fill="white"></path></mask><g mask="url(#mask0_2088_78)"><path d="M110.7 74.3C110.567 74.3 110.467 74.267 110.4 74.2C110.5 74.3 110.6 74.4 110.7 74.3ZM84.6001 78.8C84.2001 78.733 83.8331 78.667 83.5001 78.6C83.7671 78.867 84.1331 78.933 84.6001 78.8ZM125.9 67.9C126.3 67.833 126.667 67.767 127 67.7C126.7 67.7 126.4 67.7 125.9 67.9ZM54.6001 78.5C54.2029 78.4389 53.802 78.4055 53.4001 78.4C54.1001 78.5 54.4001 78.6 54.6001 78.5ZM170 37C169.6 37.2 169.333 37.433 169.2 37.7C169.5 37.7 169.8 37.5 170 37ZM163.1 42.8V42.7C163 42.7 163 42.7 163.1 42.8ZM158.3 46.1H158.4C158.3 46 158.3 46 158.3 46.1ZM169.2 37.7C168.2 38 167.2 37.5 167.8 38.8C167.2 39.2 166.733 39.733 166.4 40.4C167.7 40.9 168.7 38.5 169.2 37.7ZM110.7 74C111.4 74 110.9 74.2 110.7 74ZM118.3 70.9L117.5 71.1C117.8 71.1 118 71.1 118.3 70.9ZM146.6 59.6C146.533 59.667 146.467 59.7 146.4 59.7C146.4 59.8 146.5 59.7 146.6 59.6ZM117.5 71.1C117.3 71.2 117 71.2 116.8 71.3C117.067 71.233 117.3 71.167 117.5 71.1ZM24.1001 11.4C24.1001 11.4 23.8001 11.9 25.0001 11.7C25.6001 10.7 24.0001 10.6 25.1001 9.49999C23.3001 10.7 25.3001 9.49999 24.1001 11.4ZM24.1001 9.79999C23.6001 9.69999 24.0001 9.79999 23.2001 9.79999H24.1001ZM84.9001 60.9V60.3C84.8001 60.6 84.8001 60.8 84.9001 60.9ZM58.1001 68.5C58.4001 68.5 58.7001 68.4 58.9001 68.3C58.5001 68.3 58.2001 68.4 58.1001 68.5ZM13.4001 18.3C13.0671 18.5 12.8001 18.767 12.6001 19.1L13.4001 18.3ZM57.4001 5.89999C56.5001 6.39999 59.3001 7.09999 59.7001 7.09999C58.9999 6.58385 58.2241 6.17907 57.4001 5.89999ZM80.7001 25.6C80.7001 25.533 80.6331 25.4 80.5001 25.2L80.7001 25.6ZM19.2001 11.8C18.2001 12.4 17.3001 13.1 16.3001 13.8C16.9001 13.5 19.1001 12.4 19.2001 11.8ZM11.0001 27.2C11.0001 27.133 10.9671 27.1 10.9001 27.1L11.0001 27.2ZM141.4 62C141.533 62 141.7 61.967 141.9 61.9C141.767 61.9 141.6 61.933 141.4 62Z" fill="white"></path><path fill-rule="evenodd" clip-rule="evenodd" d="M50.0001 3.4C51.2001 4 54.6001 5 55.2001 5.6C51.8001 6.2 58.9001 8.3 60.4001 9.2H59.7001C60.9001 10 62.1001 11.4 63.8001 11.6C63.2671 11.533 62.8001 11.667 62.4001 12C62.1001 13 66.5001 13.9 67.1001 15.5C67.0331 14.833 67.0001 14.167 67.0001 13.5C68.2001 14.9 69.5001 13.8 70.6001 15.2C70.1001 16.2 72.7001 17.8 73.6001 18.7C75.4001 20.5 76.5001 23.3 78.5001 24.6C78.2001 24.5 81.5001 28.4 81.9001 28.9C83.9001 31.2 85.0001 33.3 86.1001 35.8C86.7001 37 87.1001 39.1 88.5001 39.8C88.5671 40.267 88.6001 40.767 88.6001 41.3C87.8001 40.9 87.1001 38.7 86.1001 38.7C86.9001 41.2 88.1001 43.2 89.0001 45.7C89.3001 46.5 89.1001 46.9 89.3001 47.7C89.7001 49 90.8001 49.8 89.7001 49.3C90.0113 50.3346 90.6412 51.2445 91.5001 51.9C90.4001 46.9 92.8001 51.4 93.5001 54.2C94.9001 59.5 94.8001 64.9 94.8001 70.3C100.6 70.1 107.9 68.8 114.5 67.5C115.6 66.7 116.7 65.6 118.1 65.4C118.167 65.733 118.233 66.1 118.3 66.5C120.2 65.6 121.4 63.9 123.2 62.9C124.1 63.2 121.2 64.9 124.7 63.2C123.4 64.3 126.5 62.5 124.4 64.1C124.9 65.3 128 63.4 127.1 63.4C128.2 63.3 127.3 63.5 127.6 64.1C129.4 63.7 129.4 62.4 127.6 62.3C132.4 62.1 132 61.2 134.9 59.1C139.2 55.9 144.8 53.2 149.7 50.8C148.5 52.4 145.8 53 144.9 54.7L145.1 54.5C144.8 54.9 144.4 55.4 144.4 55.6C146.5 55.6 146.3 53.5 148 53.6C145.7 55.2 149.1 53.6 148 54.9C148.6 54.5 152.4 52.5 148.1 53.9C148.4 53 150.4 51.9 151 51.4C151.3 51.1 153.7 49.2 154.1 49C154.1 49.333 154.067 49.7 154 50.1C156.4 49.6 158.4 48.1 160.5 47C159.767 47.267 159.067 47.3 158.4 47.1C158.8 46.5 159.2 46 159.6 45.5C159.542 45.7358 159.476 45.9693 159.4 46.2C160.2 45.6 161.8 42.8 161.5 44.9C164.4 43.2 162.5 44.9 165 43.7C164.683 43.4445 164.349 43.2107 164 43C165.3 42.5 171.6 37.8 171.8 37.9C172.4 37.5 168.7 42.2 170.8 42C171.4 41.2 171.967 40.367 172.5 39.5C170.3 40.4 174.4 32.4 175.4 34.7C175.5 35.1 176.6 33.1 176.7 33C176.633 33.267 176.7 33.467 176.9 33.6C177.5 33.2 177.8 31.4 177.8 31.6C177.8 31.9 181.2 27.7 181.4 27.3C181.4 28.4 178.7 33.2 178.8 33.3C181.5 32.4 182.2 27.9 183.2 26.4C183.8 25.5 185 24.7 184.6 23.9C184.1 23.9 186.4 21.4 186.3 21.6C186.167 22.4 186.467 22.533 187.2 22C186.2 23.2 187.3 24.3 186.3 25.3C186.5 24.767 186.6 24.2 186.6 23.6C186.4 22.4 183.6 27.9 184 27.1L184.8 26.3C186 27 183.7 29.3 184.3 30.3C184.433 29.967 184.667 29.8 185 29.8C184.35 30.3155 183.778 30.9217 183.3 31.6C183.367 31.267 183.4 30.933 183.4 30.6C181.6 31.4 182 32.7 180.5 33.8C180.2 33.1 181.6 32.2 181.4 31.5C181.3 31 180.1 33.4 180 33.4C178.3 34.7 177.4 34.9 176.2 37.4C176.4 36.667 176.667 36 177 35.4C176.2 36.4 174.1 36.5 173.7 37.9C174.033 37.767 174.367 37.6 174.7 37.4C173.9 38 173.267 38.7 172.8 39.5C173.333 40.033 173.867 40.1 174.4 39.7C173.1 40.9 171.7 42.9 170.7 42.1C170.6 42.2 167.8 44.4 168.6 44.8C168.7 44.8 170.1 43.5 170 44.4C169.3 44.1 169.2 45.4 168.7 45.7C169.5 44.1 166.6 46.1 167.1 45.1C165.4 46.1 164.2 47.3 163 48.4C159.5 46.7 162 49.4 159.6 51.5C159.6 51.167 159.567 50.833 159.5 50.5C159.4 50.6 157 52 157.6 52.6C157.7 52.5 160.7 52.1 160.6 52.9C160.4 53.8 153.2 53.2 152.1 56.6C152.4 56.9 153.6 56.4 153.4 57.2C151 57.8 148.3 59.8 146.1 60.6C145.1 61 144 61.3 142.9 61.9C141.9 62.5 137.8 64.3 138.5 63.8C137.4 64.1 135 66.6 135.3 65.1C135.3 65.1 133.6 65.7 134.7 65.3C133.9 65.5 133 66.5 131.8 67C132.133 66.933 132.5 66.9 132.9 66.9C131.3 67.7 129.5 68.3 128.1 69.2C126.6 70.1 125.2 71.5 123.5 72.2V71.4C121 71.9 120.6 71.4 118.3 71.9C116.7 72.9 110.9 75.2 109.5 75.4C108.3 75.6 102.7 74 102.1 75.6C103.6 75.8 105 76.1 106.5 76C104.9 76.5 103.7 77.6 102.1 78C102.3 78.2 102.533 78.267 102.8 78.2C101.2 78.6 100.6 78.3 98.7001 78.9C98.7001 79.3 98.7331 79.7 98.8001 80.1C97.5331 80.5 96.2671 80.633 95.0001 80.5C95.2001 83.4 93.1001 85.6 93.2001 88.5C93.3331 88.367 93.4331 88.233 93.5001 88.1C93.5001 92 90.9001 106 87.6001 107.4C87.6001 107.2 87.6331 107.033 87.7001 106.9C87.0001 108.1 85.2001 109.9 84.7001 110.6C84.9001 110.3 81.6001 114.9 82.5001 112.8C80.3001 117.5 77.4001 122.2 73.1001 125.8C71.2001 127.4 67.7001 130.4 65.4001 130.7C65.5001 130.7 62.5001 130.8 62.9001 130.1C62.2001 131.4 60.4001 132.2 59.1001 132.6C60.8001 129.8 63.5001 129.9 66.1001 127V127.5C66.7001 127.2 69.5001 122 69.8001 122.6C69.6001 123.067 69.6671 123.467 70.0001 123.8C71.4001 122.4 69.2001 120.3 71.7001 120C71.6331 120.133 71.5331 120.3 71.4001 120.5C73.3001 118.6 71.6001 120.5 72.2001 120.9C72.9001 121.2 74.2001 119.1 73.8001 118.9C70.7001 117.5 73.8001 118.3 74.9001 116.8C75.4001 116.1 75.5001 113.5 75.9001 112.7C76.9001 110.4 76.4001 112.3 77.8001 109.9C77.8001 111.2 75.8001 112.1 76.6001 113.2C77.1001 113.8 78.6001 108.5 79.1001 107.5C79.7001 106.1 80.9001 105.4 81.0001 103.4C80.75 103.714 80.4829 104.015 80.2001 104.3C83.0001 100.9 82.1001 96.1 83.4001 92.3C83.3001 91.1 86.0001 94.4 86.1001 94.7C86.4001 94.4 86.3001 89.4 86.4001 88.9C85.9001 88.1 85.1001 90.4 85.1001 90.4C85.2001 89 86.7001 86.3 85.8001 85C85.8671 85.533 85.7001 85.833 85.3001 85.9C84.9001 85.8 84.1001 83.1 84.4001 82.7C84.7331 82.833 85.0001 83.033 85.2001 83.3C85.5331 82.633 85.5671 81.933 85.3001 81.2C84.7001 81.2 84.5001 81.4 83.8001 81.5C84.7001 81.2 86.8001 80.9 86.6001 80C85.8001 80.2 85.0001 81.6 85.1001 79.6C85.4001 80.4 85.9001 79.4 84.7001 78.9C83.5001 78.4 79.9001 80.2 77.3001 79.7C79.0001 79.8 78.4001 78.8 79.8001 78.8C76.0001 78 73.4001 81.2 70.0001 81.7C67.4001 82 65.8001 80.4 63.1001 81C63.7001 80.8 61.2001 79.4 60.2001 79.6C60.7331 79.867 61.2671 80.167 61.8001 80.5C59.4001 80.8 56.9001 79.9 54.6001 79.5C55.5001 79.3 54.2001 78.9 55.8001 78.8C56.1001 76.8 51.1001 79.2 50.9001 79.2C47.9001 79.3 43.8001 77.6 41.0001 76.8C34.2001 74.8 27.5001 72.3 21.5001 68.7C11.4001 62.6 4.00006 53.3 1.60006 42.5C-1.49994 28.7 1.70006 16.2 14.0001 8.2C18.2001 5.5 22.1001 3.7 26.4001 2C30.8001 0.2 36.1001 1.3 40.9001 0.5C42.9001 1.7 47.3001 2.2 50.0001 3.4ZM87.8001 105.9C87.7331 106.233 87.7001 106.567 87.7001 106.9C87.8001 106.5 87.9001 106.2 87.8001 105.9ZM174.8 39.3C174.667 39.5 174.533 39.633 174.4 39.7L174.8 39.3ZM148 55V54.9C147.933 54.967 147.933 55 148 55ZM145.6 54.2C145.467 54.267 145.3 54.367 145.1 54.5C145.3 54.3 145.5 54.2 145.6 54.2ZM114.5 67.5C113.986 67.6237 113.507 67.8631 113.1 68.2C113.6 68.1 114.1 67.8 114.5 67.5ZM67.1001 16C67.1671 15.867 67.1671 15.7 67.1001 15.5V16ZM145.4 60.6H145.7C146.1 59.8 145.9 60.1 145.4 60.6ZM131.7 67.2C131.3 66.9 126.2 68 125.8 69C126.7 70 129.5 67.7 131.7 67.2ZM86.5001 79.4C85.9671 79.133 85.6671 79.267 85.6001 79.8C85.7001 79.8 86.5001 79.6 86.5001 79.4ZM86.7001 80.9C85.8001 81.3 84.9001 83.4 86.4001 83.4C86.6001 82.6 86.7001 81.767 86.7001 80.9ZM97.3001 75.8C98.5001 76 95.9001 77.1 98.1001 76.6C95.2001 77.8 94.8001 76.9 95.0001 79.9C96.2001 79.5 102.8 76 102.7 75.9C102.2 75.6 99.2001 76.5 98.8001 76.5C97.6001 75.9 99.9001 75.4 97.3001 75.8ZM26.8001 8.9C26.8671 9.033 26.9331 9.2 27.0001 9.4C24.1001 9.6 22.3001 12.6 19.7001 12.7C25.4001 8.4 13.3001 13.8 15.4001 14.7C15.6671 14.5 15.9001 14.267 16.1001 14C16.4001 15 13.9001 15.2 14.9001 16C16.1001 15.7 15.9001 16.1 17.3001 15.3C18.0001 14.9 19.2001 13.1 20.6001 12.9C21.1001 14.3 18.3001 14.3 17.7001 15.9C19.3001 14.7 18.0001 16.6 18.9001 16.1C17.5001 17.2 18.4001 18.2 17.1001 19.3C17.1001 18.9 17.1331 18.467 17.2001 18C16.4671 18.4 16.1001 19 16.1001 19.8C16.7001 21.067 16.3001 21.767 14.9001 21.9C13.9001 24.2 13.9001 23.6 13.4001 25.9C12.8671 25.033 12.8331 24.167 13.3001 23.3C13.1001 23.567 13.0331 23.533 13.1001 23.2C12.2001 23.9 12.7001 25.4 12.1001 25.9C11.2001 26.5 14.7001 18.1 14.8001 17.9C15.8671 17.633 15.9671 17.167 15.1001 16.5C14.7001 16.433 14.3001 16.333 13.9001 16.2C13.3001 16.9 13.8001 18 13.4001 18.7C11.3001 21.8 10.2001 25.6 10.4001 29.2L10.0001 28.2C5.30007 30.4 11.2001 37.1 11.7001 39.8C11.2001 40.3 10.6001 38.9 10.3001 38.9C8.80007 38.5 11.8001 42.6 12.0001 42.8C12.6001 43.5 13.0001 43.3 13.2001 43.1C13.1331 43.9 13.3331 44.633 13.8001 45.3L13.0001 45.1C13.4001 47.1 18.0001 51 17.4001 49.2C18.8001 52.2 18.0001 49.1 19.3001 50.4C18.0001 50.3 19.7001 52.1 19.0001 52.6C19.0001 52.6 17.7001 50.9 17.4001 51.5C17.6001 51.8 18.3001 55.4 19.3001 54.8C19.6331 53.933 20.0001 53.067 20.4001 52.2C21.3001 52.3 20.1001 55.1 21.0001 55.7C20.1001 55.2 20.1001 55.9 20.4001 56.3C21.1001 57.4 25.2001 58.2 26.3001 59C26.0331 59 25.7671 59.033 25.5001 59.1C26.7001 59.3 26.8001 60.2 28.0001 60.4V60.3C31.0001 63.2 40.1001 65.3 43.8001 66.3C46.0001 66.9 47.8001 67.9 49.7001 68.5C51.0001 68.8 52.4001 68.6 52.2001 68.5C54.4001 68.5 56.0001 69.7 58.1001 69.5C58.0001 69.6 54.7001 70.3 55.1001 70.8C56.3001 72.7 66.1001 69 68.9001 70.9C68.7671 70.967 68.6001 71.067 68.4001 71.2C69.0001 71.3 70.3001 70.2 70.7001 71C70.7001 71.467 70.4671 71.8 70.0001 72C72.8001 71.9 75.4001 70.7 78.2001 70.8C79.6001 70.9 80.9001 72 83.1001 71.6C86.5001 71 86.6001 70.7 86.0001 67.4C86.0001 66.8 84.4001 60.5 85.7001 62.4C84.1001 56.5 81.9001 51.6 80.2001 45.9C80.3331 46.3 80.6001 46.5 81.0001 46.5C80.5001 43.7 78.3001 41.7 77.1001 39.2C76.5001 38.1 76.0001 34.7 75.3001 34.3C74.9001 34.1 75.1001 35.2 74.8001 35.1C73.0001 34.2 70.6001 30.1 68.8001 27.9C66.2001 24.7 64.0001 23.2 60.8001 20.5C61.5001 21.7 59.4001 20.2 59.3001 20.1C60.6001 20.1 59.5001 19.3 61.1001 19.9C59.7001 18.3 56.2001 19.7 56.2001 17C56.7331 17.4 57.3001 17.667 57.9001 17.8C57.1001 16.8 56.0671 16.167 54.8001 15.9C54.4001 15.9 55.4001 17 55.2001 17.1C54.7001 17.2 52.1001 14.9 51.5001 14.5C49.8001 13.7 48.8001 14.5 47.2001 13.9C47.0001 13.2 49.2001 12.8 46.9001 12.2C45.0001 11.7 45.5001 13.2 43.9001 13C43.9001 11.9 44.7001 11.6 45.8001 11.8C45.4001 11.4 43.7001 10.3 45.3001 10.1C42.9001 10.3 33.0001 9 33.8001 12.6L32.4001 13C31.5001 12.8 33.3001 11.9 32.8001 11.5C31.8671 11.033 31.1671 11.2 30.7001 12C30.9001 12.4 31.2331 12.733 31.7001 13C30.4001 12.6 30.3001 13.9 29.2001 13.7C31.0001 13 27.9001 12.4 30.4001 11.9C27.8001 11.6 30.5001 11.4 30.8001 10.4C29.5388 10.665 28.3013 11.0329 27.1001 11.5C27.3001 10.5 29.2001 10.8 29.7001 9.9C28.6001 9.9 26.3001 11.1 25.4001 10.4C25.8001 10.1 28.1001 10.1 28.3001 9.2C27.9001 9 27.3001 8.9 26.8001 8.9ZM51.6001 68.6L52.2001 68.5C52.0001 68.5 51.8001 68.533 51.6001 68.6ZM27.6001 59.9C28.0001 59.967 28.1331 60.1 28.0001 60.3L27.6001 59.9ZM13.2001 43.1C13.6001 42.8 13.7001 42.3 14.2001 44C13.8223 43.7534 13.485 43.4498 13.2001 43.1ZM26.7001 8.8L26.6001 8.9H26.8001L26.7001 8.8ZM26.6001 8.9C25.6001 8.9 24.7001 9.1 25.0001 9.3C25.8001 9.7 26.3001 9.1 26.6001 8.9Z" fill="white"></path><path d="M89.9 47.1C90.233 47.633 90.533 48.167 90.8 48.7C90.467 47.9 90.167 47.1 89.9 46.3C90.3 46.967 90.3 47.233 89.9 47.1ZM183.4 23.1C183 23.233 182.6 23.333 182.2 23.4C182.267 23.6 182.3 23.767 182.3 23.9C182.633 23.633 183 23.367 183.4 23.1ZM166.1 37.6L167.7 36.7C167.9 36.1 165.9 37 166.1 37.6ZM176.7 37.3L177.1 36.3C176.233 36.567 175.733 37.133 175.6 38C176.2 37.1 176 37.9 176.7 37.3ZM160.8 42.2C161 41.8 162.7 41.3 162.3 40.6C162.3 41.5 160.6 41.4 160.8 42.2ZM170.2 44C169.4 44.7 167.8 44.9 167.8 45.6C168.8 45.8 169.1 44.7 170.2 44ZM158.3 45.7C157.3 46 154.1 45.9 155 47.8C155.2 48.4 158.3 45.8 156.5 47.7C157.1 46.967 157.7 46.3 158.3 45.7ZM165.6 47.4C166.533 47.2 167.4 46.833 168.2 46.3C167.467 45.967 166.767 46.133 166.1 46.8V46C165.2 46.3 166.6 46.7 165.6 47.4ZM150.4 49.6C151.5 49.3 153.5 47.9 153.7 46.6C152.6 47.4 151.2 48.5 150.4 49.6ZM161 49.3C161.067 49.633 161.167 49.933 161.3 50.2C161.2 50.2 162.4 48.9 162.4 48.8C161.4 49.7 161.8 48.5 161 49.3ZM158.2 54.1L158.8 53.3C158.3 51.9 156.9 53.6 156.5 54C157.033 54.067 157.6 54.1 158.2 54.1ZM155.6 53.4C155.1 54 154.2 55 153.8 55.9C154.531 55.1694 155.139 54.3251 155.6 53.4ZM125.4 62.4C125.6 62 123.5 62.3 124.7 62.2C124.6 62.7 126.2 62.6 125.4 62.4ZM131.8 67.6C132.467 67.533 132.933 67.233 133.2 66.7C132 66.7 130.3 68.1 129.3 68.8C130.167 68.4 131 68 131.8 67.6ZM75.3 79.7C74.9 79.5 73.7 79.9 74.1 80.2C74.7 79.9 75.4 80 75.3 79.7ZM15.2 46.2C15.7 47 15.7 46.4 16.3 46.9C16 46.1 15.6 45.7 15.2 46.2ZM13.3 39.9C13.2 39.7 13 39.4 13 39.7C13.1 39.7 13.2 39.8 13.3 39.9ZM12.5 39.1C12.567 38.567 12.833 38.467 13.3 38.8C13.0858 38.5171 12.8519 38.2498 12.6 38C11.8 39.9 12.4 39.6 12.5 39.1ZM9.69995 30.3C10.2 31.9 11.2 31.1 10.9 33.2C11.5 32 11.6 34.2 11.8 34.5C12.1 31.3 9.79995 30.8 9.79995 28.7C9.79995 29.233 9.76695 29.767 9.69995 30.3ZM10.1 35.2C10.7 35.3 10.5 33.9 10.2 33.5C10.1 33.9 9.49995 34.7 10.1 35.2ZM12 28.2C11.6 27.667 11.433 27.933 11.5 29C11.7 28.733 11.867 28.467 12 28.2ZM12.8 26.9C12.6 26.6 13 25.5 12.5 26L12.8 26.9ZM14.2 22.1C14.3 22.1 15.6 21.3 15 22.4C15.4 22.1 15 20.3 14.2 22.1ZM21.5 13.7C20.967 13.833 20.7 14.133 20.7 14.6C26 9.50001 21.1 14.2 21.5 13.7ZM17 12.3C18.3 11.7 18.1 11.9 19.6 10.9C18.6 10.5 18.2 11.9 17 12.3ZM23 14.3C22.067 14.633 22.1 14.7 23.1 14.5C23.833 13.7 23.8 13.633 23 14.3ZM25.1 12.3L24.3 14.3C25.3 14 25.1 12.9 26 12.8C26.7 12.6 28 13.3 29 12.2C28.467 11.8 28.267 11.267 28.4 10.6C27.6 10.9 26.1 13 25.1 12.3ZM23.1 10.5C22.5 9.70001 21.6 11.4 21.3 11.7C23 11.5 21.9 11.5 23.1 10.5ZM36.9 9.90001C36.4271 9.96834 35.9593 10.0686 35.5 10.2C37.4 10.1 37.1 9.60001 36.9 9.90001ZM36.7999 10.5C36.7999 11.3 37.333 11.267 38.4 10.4C37.867 10.467 37.3329 10.5 36.7999 10.5ZM38.7 11C38.3 11 37.9 11.033 37.5 11.1C37.6 11.1 39.3 10.9 38.7 11ZM41.4 11.4C42.067 11.267 42.6329 11.467 43.0999 12C42.8999 11.5 41.4 10.8 41.4 11.4ZM62.5999 8.20001C62.1329 8.26701 62.0329 8.53301 62.2999 9.00001C62.6418 8.93083 62.9765 8.83041 63.2999 8.70001C63.0999 8.56701 62.8669 8.40001 62.5999 8.20001ZM66.5999 11.4C65.3999 10.4 63.8999 10.2 62.5999 9.40001C63.3999 9.93301 64.2329 10.467 65.0999 11H64.5999L66.5999 11.4ZM86.7 39.4C88.1 41.2 88.4 43.6 90.2 44.7C90.2 43.833 89.767 43.067 88.9 42.4C89.1 42.467 89.267 42.533 89.4 42.6C89.1 40.8 87.6 40.5 86.7 39.4ZM66.9 125.4C66.9 125.1 66.4999 125.1 66.1999 125.1C65.4999 126.1 66.7 125.4 66.9 125.4ZM147.2 31.6L146.9 31.5C146.8 32 147 31.7 147.2 31.6ZM147.2 31.6L147.4 31.7C147.333 31.633 147.267 31.6 147.2 31.6ZM148.9 31.8C148.6 32.2 148.1 31.7 147.8 32.4C148.3 32.7 148.9 32.5 148.9 31.8ZM150.3 31.9C149.7 31.6 150.3 31.7 149.8 31.2C149.667 31.533 149.433 31.8 149.1 32C149.4 33.2 150.3 32 150.3 31.9ZM171 20.8H171.1C171 20.8 171 20.7 171 20.8ZM168 23.6H167.7C167.767 23.667 167.867 23.667 168 23.6ZM181.9 12.9C182.033 12.833 182.133 12.767 182.2 12.7C182 12.767 181.9 12.833 181.9 12.9ZM156.5 31.4C156.6 31.4 156.7 31.3 156.7 31.2C156.6 31.1 156.5 31.2 156.5 31.4ZM157.2 30.6C156.5 30.3 157.1 31.7 157.1 31.7C156.6 31.2 158.6 30.7 157.2 30.6ZM171.1 20.9C171 20.8 170.9 20.9 171.1 20.9ZM169.8 22.4C169.9 22.4 169.9 22.4 170 22.3C169.933 22.3 169.867 22.333 169.8 22.4ZM182.9 41.7C182.6 40.7 183.1 42.1 182.6 41.5C182.6 41.6 183.5 42.3 182.9 41.7ZM192.2 16.8C192 16.933 191.767 17.1 191.5 17.3C192.1 17.1 193.1 16.6 193.6 16.1C192.2 16.967 191.733 17.2 192.2 16.8ZM184.2 36.7C184.267 36.633 184.3 36.567 184.3 36.5C184.2 36.6 184.2 36.6 184.2 36.7ZM185.4 19.4C185.333 19.533 185.3 19.633 185.3 19.7C185.367 19.633 185.4 19.533 185.4 19.4ZM194.4 14.8C194.4 14.7 195 13.8 194.5 14.3C194.5 14.3 194.1 15 194.4 14.8Z" fill="white"></path><path fill-rule="evenodd" clip-rule="evenodd" d="M200.9 11.6C199.3 13.4 198.8 22.5 196.3 23.5L195.8 23C195.6 23.1 194.9 25.4 194.9 25.4C194.633 25.067 194.333 24.967 194 25.1C193.9 25.3 194.2 26.2 193.7 26.3C194.4 26.4 196 26.8 195.2 27.3L194.8 27.1C194.3 28 194.2 29.1 193.3 29.7C193 30.2 192.6 33.7 192.7 33.8C192.5 33.867 192.333 33.9 192.2 33.9C192.074 33.5792 191.906 33.2766 191.7 33C190.7 34.1 190.4 35.3 190.8 36.2V36.1C190.2 39.2 188.5 49 188.5 49.1C188.1 48.8 187.3 51.1 187.2 50.6C187.6 52.8 187.2 54.6 186.6 56.6C185 56.4 185.5 57.8 185.1 58.5C184.9 57.7 184.8 57 185.1 56.1C184.79 55.5915 184.382 55.1496 183.9 54.8C184.233 54.6 184.567 54.567 184.9 54.7C184.567 54.367 184.133 54.167 183.6 54.1C183.4 54 184.8 53.6 184.9 53.6C184.9 52.5 183.6 53.9 183.3 52.9C183.7 52.967 184.033 52.833 184.3 52.5C182.7 52 183.3 51.1 183.3 50.5C183.7 50.7 182.9 52.2 184.2 51.3L182.8 49.3C183.067 49.3 183.333 49.233 183.6 49.1C183.2 48.9 183.2 48.8 183.2 48.8C183.133 48.8 183.067 48.767 183 48.7C183.7 47.7 182.1 46.2 182.5 45.2C182.5 45.3 184.9 45.8 185 45.8C184.8 45.5 183.7 43.6 183.4 44.4C183.467 44 183.433 43.567 183.3 43.1C183.2 43.8 181.9 42.5 182.2 42.3C182.5 42.5 183.3 42.9 182.7 41.9C182.967 42.233 183.267 42.5 183.6 42.7C183.8 42.3 183.3 39.9 183.4 39.4C183.3 39.8 183.9 39.2 183.9 39.1C184 38.3 184.3 37.2 184.4 36.8C184.6 36.3 186.4 29 187.7 29.7C187.9 29 188 25.5 188.8 24.1C188.2 24.3 187.8 25.2 187 25.7C187.133 25.5 187.233 25.3 187.3 25.1C186.7 25.5 186.1 25.9 185.5 26.2C186.5 24.8 187.8 23.6 188.4 22C188.467 22.333 188.567 22.667 188.7 23C188.7 22.867 188.767 22.733 188.9 22.6C189.4 22.8 189.6 22.3 189.4 23.1C190.7 22.4 189.1 22.4 189.1 22C190.5 22.6 189.6 20 189.7 19.9C189.9 20.1 190.167 20.233 190.5 20.3C190.7 20.1 190.767 19.867 190.7 19.6C190.409 19.5214 190.137 19.3854 189.9 19.2C190.2 19.3 191.7 19.7 191.9 19.9C191.3 19.1 191.3 19 191.6 18.5C191.2 18.3 190.8 18.4 190.4 18.5C190.6 18.367 190.767 18.233 190.9 18.1C190.767 18.167 190.667 18.2 190.6 18.2C191.8 17.7 192.2 17.1 193.4 16.4C193.4 16.533 193.333 16.667 193.2 16.8C193.4 16.6 195.3 16.1 194.9 15.5C194.6 15.6 194.2 16.1 194.1 16.2C193.952 16.278 193.817 16.3793 193.7 16.5C194.3 15.8 193.9 15.6 193.9 15.3C193.9 15.6 196.5 12.9 196.1 12.9C196.2 12.9 195.2 13.6 195.1 13.8L195.5 13.2C195.433 13.267 195.333 13.3 195.2 13.3C195.331 13.2359 195.436 13.1304 195.5 13C194.9 13.4 191.6 15.2 193.7 14.4C193.567 14.667 193.4 14.9 193.2 15.1L193.8 14.7L193.1 15.4C195.5 13.7 193.4 15 193.7 15.3C193.567 15.633 193.3 15.867 192.9 16C193.6 15.2 192.3 16.1 192 16.6C192.3 16 190.6 17.2 190.5 17.5C190.833 17.233 191.133 16.967 191.4 16.7C191.1 17.1 190.1 17.8 189.7 18.1C189.645 18.2711 189.578 18.4382 189.5 18.6V18.7C189.4 19.2 189.2 19.6 188.8 20.1C188.4 20.033 188.3 19.767 188.5 19.3C188.3 18.5 187 20.4 187 20.6C187 20.2 186.8 19.967 186.4 19.9C186.4 19.9 188 18.5 189 17.6C189 17.8 189.033 18.033 189.1 18.3V18.4L189.2 18.3C189.133 18.367 189.1 18.433 189.1 18.5C189.433 18.033 189.767 17.6 190.1 17.2L189.7 18C190.1 17.6 190.7 16.9 191.2 16.4C191.6 16.267 191.8 16.033 191.8 15.7C191.6 15.9 191.8 15.7 191.8 15.5C191.267 16.1 190.733 16.733 190.2 17.4C191.2 16.2 190.7 16.7 190.3 17.1C191 16.3 191.5 15.9 191.9 14.9C191.633 15.3 191.333 15.667 191 16C192.2 14.3 191.8 15.1 193 13.3C192.5 13.5 191.9 14.2 191.4 15L191.3 15.1C191 15.5 190.7 15.9 190.5 16.4C190.433 16.4 190.4 16.433 190.4 16.5H190.3V16.4C190.5 16.1 189.9 17.1 189.6 17.6C189.733 17.267 189.867 16.967 190 16.7C190.4 16.6 190.4 16.2 190.2 15.9L190.4 15.3C190.341 15.4878 190.238 15.6591 190.1 15.8C189.8 15.3 188.9 15.1 189 17.4C188.1 17.9 186.6 18.2 186.4 18.2C186.3 19.1 185.7 18.5 185.4 19.4C185.4 19.4 185.7 17.6 185 18C184.8 19.6 183.8 20.7 182.8 20.5C182.6 20.633 182.567 20.833 182.7 21.1C182.3 20.967 182.133 20.7 182.2 20.3C180.9 21.4 178.3 24.4 176 23.6C175.3 25 173.8 25 171.9 25.5C171.7 25.9 171.3 26.6 171.2 26.6C171.084 26.3738 170.984 26.1399 170.9 25.9L170.1 27.7C169.7 27.4 169.4 27 169.4 26.8C168.733 26.267 168.5 26.333 168.7 27C168.7 26.9 168.2 26 168.1 26.6C168 27 168.4 27.4 168.7 27.6C166.8 27 165.7 29.9 162.9 30.5C163.3 30.033 163.7 29.6 164.1 29.2C164.2 29.2 164.2 29.1 164.2 28.8C163.4 28.7 163.5 29.5 163.2 29.2C163.5 28.9 162.9 28 162.8 28.4C162.467 29.067 162.567 29.267 163.1 29C162.838 29.1933 162.659 29.4794 162.6 29.8C162.3 29.9 161.7 30.2 161.5 30.3C161.4 30.1 159.7 29.6 159.4 29.5C160.3 29.9 160.2 30.3 159.8 30.7H159.7L159.4 31C159.4 31 158.4 30.1 158.1 30C158.233 30.267 158.333 30.5 158.4 30.7C157.9 30.5 155.9 30.7 155.9 30.6C156 30.5 157 29.6 156.3 28.8C155.9 30.8 155.6 30.9 154.6 30.8L154.3 31.1C154.3 31.033 154.267 30.967 154.2 30.9C154 30.8 153.8 31.3 153.8 31.5C153.8 31.1 152.6 31.9 152.4 32C152.6 31.2 153.7 30.5 153.6 30.2C152.7 29.4 151.9 32 151.6 32C151.6 31.733 151.467 31.567 151.2 31.5C151 32.1 151.3 32.3 150.5 32.3C150.5 32.2 150.3 30.6 151 30.5C150.733 30.833 150.667 31.167 150.8 31.5C151.2 31.433 151.5 31.2 151.7 30.8V29.1C151.9 29.1 152.1 29.033 152.3 28.9C153 29.9 152.2 28.9 153.2 29.1C152.867 29.367 152.8 29.7 153 30.1C152.9 29.6 154 30.2 154.6 29.2C154.4 30.1 155.2 30.3 155.3 29.9C155.3 29.8 156 28.8 155 28.7C155.4 28.6 156 28.6 156 28.2C156.8 28.5 155.7 29 156.8 28.6C157.5 28.3 156.5 28 156.5 27.8C156.7 27.933 156.833 27.867 156.9 27.6C156.967 27.933 157.133 28.2 157.4 28.4C157.733 28.333 157.933 28.133 158 27.8C158.1 27.9 159 29.1 159.3 29.1C159.164 28.4615 159.234 27.7961 159.5 27.2C159.6 27.5 159.4 28.2 160 27.7C160.2 27.4 158.8 26.1 159.3 26C159.7 26.667 160.3 27.1 161.1 27.3C162.2 24.9 161.1 27.1 161.1 25.6C161.9 26 165.2 24.7 165 24.9C166.6 25.1 166.6 23.1 168 21.8C169.1 23 171.5 21 172.6 20.6C170.4 20 173.7 19.8 172.4 19.1C172.667 18.967 172.833 19.067 172.9 19.4C173.1 19.333 173.2 19.267 173.2 19.2C173 19.6 172.8 19.9 172.8 20C173.1 20.1 174.1 20.7 174.5 20.5C173.3 20.3 175.1 19 175.3 18.7C175.177 18.6443 175.068 18.5613 174.981 18.4574C174.895 18.3535 174.833 18.2313 174.8 18.1C174.7 18.5 174.3 18.7 174.9 18.6C174.747 18.7494 174.579 18.8834 174.4 19C173.8 18.3 174.6 18 174.8 17.2C175.1 18.3 175.9 17.2 176.1 17.3C176.2 17.7 176.1 18.1 176.9 18C177.1 17.6 176.6 16.7 177.9 16.7L177.7 17.5C177.8 17.3 180 13.9 180.1 13.7C180.1 13.9 180.8 15.2 181.1 14C180.9 14 180.7 13.967 180.5 13.9C180.9 13.433 181.367 13.1 181.9 12.9C181.9 13.5 182.2 13.8 182.7 13.6C183.8 10.6 192.1 5.19999 195.9 3.59999C202.9 2.09999 201.5 7.79999 200.9 11.6ZM189.1 18.4V18.3C189.1 17.767 189.333 17.333 189.8 17C189.6 17.467 189.367 17.933 189.1 18.4ZM189 17.6V17.4C189.4 17.1 189.7 16.8 189.7 16.5C189.833 16.3 189.967 16.067 190.1 15.8L190.2 15.9C190.067 16.233 189.933 16.6 189.8 17C189.7 17 189.4 17.3 189 17.6ZM174.7 17.9C174.7 17.967 174.733 18.033 174.8 18.1C174.8 18.033 174.767 17.967 174.7 17.9ZM173.2 19.2C173.4 18.7 172.2 17.6 174.1 17.6C174 17.7 173.6 18.5 173.2 19.2ZM173.3 20.7C173.2 20.5 173 20.4 172.6 20.6C172.8 20.6 173.033 20.633 173.3 20.7ZM161.5 30.3C161.567 30.3 161.567 30.3 161.5 30.3ZM171.8 25.5H171.9C172 25.2 172.1 25 171.8 25.5ZM189.7 16.3C189.633 16.367 189.633 16.333 189.7 16.2V16.3ZM189.8 16.2C189.733 16.2 189.7 16.233 189.7 16.3L189.8 16.2ZM189.7 16.3V16.5C189.618 16.589 189.551 16.6902 189.5 16.8C189.567 16.667 189.633 16.5 189.7 16.3ZM187 20.6C186.933 20.6 186.933 20.6 187 20.6ZM190.6 16.4C190.467 16.667 190.3 16.933 190.1 17.2C190.233 16.933 190.4 16.667 190.6 16.4ZM189.6 17.6C189.533 17.667 189.5 17.733 189.5 17.8C189.433 17.8 189.4 17.833 189.4 17.9C189.467 17.767 189.533 17.667 189.6 17.6C189.533 17.667 189.5 17.733 189.5 17.8C189.3 17.9 189.4 17.8 189.6 17.6ZM190.4 16.6C190.4 16.533 190.433 16.467 190.5 16.4C190.767 15.933 191.033 15.5 191.3 15.1L191.4 15C190.7 16.1 191 15.7 191.2 15.5C190.5 16.4 190 17.2 189.5 17.9C189.7 17.6 190 17.1 190.4 16.5V16.6ZM194.3 16.2C194.2 16.3 194.1 16.3 194.1 16.2H194.3ZM189.5 18.6L189.3 18.7C189.367 18.633 189.433 18.6 189.5 18.6ZM188.8 23.1C188.9 23.5 189.1 23.8 189.2 24.2C189.7 23.7 189 23.5 188.8 23.1ZM190.9 35.9C190.9 35.6 190.6 35.5 190.8 35.2C190.867 35.267 190.933 35.233 191 35.1C191 35.1 190.9 35.4 190.9 35.9ZM193.5 26.3H193.7C193.4 26.2 193.2 26.2 193.5 26.3ZM189.5 18.7C189.8 18.6 190.1 18.5 190.4 18.5C190.133 18.633 189.833 18.7 189.5 18.7ZM190.9 16.9C190.5 17.233 190.1 17.6 189.7 18V18.1L190.9 16.9ZM188.7 23L188.8 23.1C188.8 23.033 188.767 23 188.7 23ZM190.8 36.1C190.8 36.033 190.833 35.967 190.9 35.9C190.9 35.967 190.867 36.033 190.8 36.1ZM163.2 25.5H163.1C163.1 25.8 163.1 25.7 163.2 25.5ZM166.5 23.9C166.6 24 168.1 24.1 168 23.6C167.5 22.9 167.6 23.9 166.5 23.9ZM189.2 18.3C189.2 18.2 189.3 18 189.4 17.9L189.2 18.3ZM192 15.6C191.9 15.7 191.8 15.8 192.6 15.2C193.1 14.8 192.3 15.2 192 15.6ZM193.8 14.7C194.2 14.2 194.8 13.6 195.2 13.3L193.8 14.7ZM192.1 15.4C192.167 15.333 192.2 15.267 192.2 15.2C192.133 15.267 192.1 15.333 192.1 15.4ZM192.2 15.2L192.4 15C192.333 15 192.267 15.033 192.2 15.1V15.2ZM193 14.3C193.5 13.7 194 13 194.6 12.4C194.4 12.6 194.2 12.7 194.3 12.4C194.1 12.7 193.3 13.4 192.7 14C192.4 14.9 191.7 15.5 193 14.2V14.3ZM192.7 14C192.5 14.2 192.3 14.433 192.1 14.7C192.233 14.5 192.433 14.267 192.7 14ZM193 14.3C192.8 14.567 192.6 14.8 192.4 15C192.733 14.8 192.933 14.567 193 14.3Z" fill="white"></path><path d="M151.4 30C150.7 29.8 150.5 28.2 150.2 30.6C150.522 30.2721 150.944 30.061 151.4 30ZM157.8 32.5L157.2 32.4C157.1 32.6 157.8 32.9 157.8 32.5ZM159.5 31.7C159.4 31.9 158.9 31.6 159 32.1C159 31.6 159.5 32.2 159.5 31.7ZM157.1 27.3C156.9 26.9 156.8 27.4 156.5 27.4C156.7 27.3 157.2 27.7 157.1 27.3ZM160.2 30.5C160.6 30.5 160.933 30.7 161.2 31.1C161.333 30.633 161.233 30.233 160.9 29.9C161 30.1 160.6 30 160.2 30.5ZM162.6 30.4C162.4 30.5 161.7 30.5 161.7 31.3L162.6 30.4ZM159.9 26.5C159.9 26.1 160.5 26 159.7 25.5C159.567 25.9 159.633 26.233 159.9 26.5ZM160.7 26.8C160.767 26.4 160.833 26.033 160.9 25.7C160.8 26.1 160.7 26.4 160.7 26.8ZM169.3 27.1C169.3 27.4 169.9 27.5 169.5 27.4C169.5 27.1 169 26.9 169.3 27.1ZM166 23.4C166.2 23.5 166.6 22.9 166.8 22.6C166.6 22.9 165.8 23.1 166 23.4ZM178.1 15.4C178.1 15.6 177.9 15.6 178 15.8C178.1 15.9 178.2 15.5 178.1 15.4ZM190.2 16.8C190.1 16.8 189.8 17.3 189.7 17.6C189.5 17.9 189.7 17.6 190.2 16.8ZM189.5 17.9C189.6 17.9 189.6 17.8 189.7 17.7L189.5 17.9ZM190.3 17.3L189.7 18C189.8 17.8 189.9 17.8 190.3 17.3ZM189.7 18C189.633 18 189.567 18.033 189.5 18.1L189.7 18ZM190.4 17.4C190 17.733 189.633 18.067 189.3 18.4C189.7 18.1 190 17.7 190.4 17.4ZM195.4 13.8C195.1 14.2 195 14.2 194.9 14.5C195.8 13.8 195 14.2 195.4 13.8ZM189.7 18.4C189 18.9 191.2 17.8 191.4 17.7C190.9 17.3 190.3 18 189.5 18.4C189.8 18.3 191.3 17.4 189.7 18.4ZM193.6 15.7C193.267 15.833 193 16.033 192.8 16.3C192.8 16.3 194.5 15.4 193.6 15.7ZM195.1 25.8C195 25.8 195 25.7 195.3 26.2C196 25.1 195.3 25.6 195.1 25.8ZM191.4 33.3C191.6 34.5 191.6 34.4 191.8 34.9C192.1 34.2 191.7 34.2 191.4 33.3ZM184.8 55.8C184.6 55.8 184.4 55.9 184.3 55.9C184.5 56.2 184.7 55.9 184.8 55.8Z" fill="white"></path></g></svg>